<?xml version="1.0" standalone="yes"?>
<svg xmlns="http://www.w3.org/2000/svg" width="465" height="161">
<path style="fill:#010101; stroke:none;" d="M0 0L0 161L373 161C375.07 154.089 380.808 151.033 387 148C390.54 155.147 402.465 168.768 411 159L412 159L426 161L465 161L465 0L152 0L50 0L0 0z"/>
<path style="fill:#2d2123; stroke:none;" d="M4 2L8 1L4 2M3 5L3 157L4 157L4 51C4 38.0087 8.00674 16.9317 3 5z"/>
<path style="fill:#a7151d; stroke:none;" d="M4 5L5 6L4 5z"/>
<path style="fill:#6c0d15; stroke:none;" d="M5.66667 5.33333L6.33333 5.66667L5.66667 5.33333z"/>
<path style="fill:#2d2123; stroke:none;" d="M7 5L7 6L11 6L7 5z"/>
<path style="fill:#eb1d25; stroke:none;" d="M4 6L4 156C84.378 155.991 164.633 137.222 245 137L245 116L241 116L241 132L122 141.83L9 151L9 11L241 30L241 46L245 46L245 25C164.629 24.7783 84.3801 6.05316 4 6z"/>
<path style="fill:#a7151d; stroke:none;" d="M13 6L13 7L17 7L13 6z"/>
<path style="fill:#6c0d15; stroke:none;" d="M17.6667 6.33333L18.3333 6.66667L17.6667 6.33333z"/>
<path style="fill:#2d2123; stroke:none;" d="M19 6L19 7L23 7L19 6z"/>
<path style="fill:#a7151d; stroke:none;" d="M26 7L26 8L29 8L26 7z"/>
<path style="fill:#6c0d15; stroke:none;" d="M29 7L29 8L32 8L29 7z"/>
<path style="fill:#2d2123; stroke:none;" d="M32 7L32 8L35 8L32 7z"/>
<path style="fill:#a7151d; stroke:none;" d="M38 8L38 9L42 9L38 8z"/>
<path style="fill:#6c0d15; stroke:none;" d="M42.6667 8.33333L43.3333 8.66667L42.6667 8.33333z"/>
<path style="fill:#2d2123; stroke:none;" d="M44 8L44 9L48 9L44 8z"/>
<path style="fill:#a7151d; stroke:none;" d="M51 9L51 10L54 10L51 9z"/>
<path style="fill:#6c0d15; stroke:none;" d="M54.6667 9.33333L55.3333 9.66667L54.6667 9.33333z"/>
<path style="fill:#2d2123; stroke:none;" d="M56 9L56 10L60 10L56 9z"/>
<path style="fill:#a7151d; stroke:none;" d="M63 10L63 11L66 11L63 10z"/>
<path style="fill:#6c0d15; stroke:none;" d="M66 10L66 11L69 11L66 10z"/>
<path style="fill:#2d2123; stroke:none;" d="M69 10L69 11L72 11L69 10z"/>
<path style="fill:#a7151d; stroke:none;" d="M9 11L9 12L14 12L9 11M75 11L75 12L79 12L75 11z"/>
<path style="fill:#6c0d15; stroke:none;" d="M79.6667 11.3333L80.3333 11.6667L79.6667 11.3333z"/>
<path style="fill:#2d2123; stroke:none;" d="M81 11L81 12L85 12L81 11z"/>
<path style="fill:#6c0d15; stroke:none;" d="M9 12L9 106L10 151L11 151C8.37883 139.99 10 127.282 10 116L10 49C10 38.3661 13.1077 21.7892 9 12z"/>
<path style="fill:#2d2123; stroke:none;" d="M16 12L16 13L20 13L16 12z"/>
<path style="fill:#6c0d15; stroke:none;" d="M20.6667 12.3333L21.3333 12.6667L20.6667 12.3333z"/>
<path style="fill:#a7151d; stroke:none;" d="M22 12L22 13L26 13L22 12M88 12L88 13L91 13L88 12z"/>
<path style="fill:#6c0d15; stroke:none;" d="M91 12L91 13L94 13L91 12z"/>
<path style="fill:#2d2123; stroke:none;" d="M94 12L94 13L97 13L94 12M29 13L29 14L32 14L29 13z"/>
<path style="fill:#6c0d15; stroke:none;" d="M32 13L32 14L35 14L32 13z"/>
<path style="fill:#a7151d; stroke:none;" d="M35 13L35 14L38 14L35 13M100 13L100 14L104 14L100 13z"/>
<path style="fill:#6c0d15; stroke:none;" d="M104.667 13.3333L105.333 13.6667L104.667 13.3333z"/>
<path style="fill:#2d2123; stroke:none;" d="M106 13L106 14L109 14L106 13M41 14L41 15L45 15L41 14z"/>
<path style="fill:#6c0d15; stroke:none;" d="M45.6667 14.3333L46.3333 14.6667L45.6667 14.3333z"/>
<path style="fill:#a7151d; stroke:none;" d="M47 14L47 15L51 15L47 14M112 14L112 15L116 15L112 14z"/>
<path style="fill:#6c0d15; stroke:none;" d="M116.667 14.3333L117.333 14.6667L116.667 14.3333z"/>
<path style="fill:#2d2123; stroke:none;" d="M118 14L118 15L122 15L118 14M54 15L54 16L57 16L54 15z"/>
<path style="fill:#6c0d15; stroke:none;" d="M57.6667 15.3333L58.3333 15.6667L57.6667 15.3333z"/>
<path style="fill:#a7151d; stroke:none;" d="M59 15L59 16L63 16L59 15M125 15L125 16L128 16L125 15z"/>
<path style="fill:#6c0d15; stroke:none;" d="M128 15L128 16L131 16L128 15z"/>
<path style="fill:#2d2123; stroke:none;" d="M131 15L131 16L134 16L131 15M66 16L66 17L70 17L66 16z"/>
<path style="fill:#6c0d15; stroke:none;" d="M70.6667 16.3333L71.3333 16.6667L70.6667 16.3333z"/>
<path style="fill:#a7151d; stroke:none;" d="M72 16L72 17L75 17L72 16M137 16L137 17L141 17L137 16z"/>
<path style="fill:#6c0d15; stroke:none;" d="M141.667 16.3333L142.333 16.6667L141.667 16.3333z"/>
<path style="fill:#2d2123; stroke:none;" d="M143 16L143 17L147 17L143 16M78 17L78 18L82 18L78 17z"/>
<path style="fill:#6c0d15; stroke:none;" d="M82.6667 17.3333L83.3333 17.6667L82.6667 17.3333z"/>
<path style="fill:#a7151d; stroke:none;" d="M84 17L84 18L88 18L84 17M149 17L149 18L153 18L149 17z"/>
<path style="fill:#6c0d15; stroke:none;" d="M153.667 17.3333L154.333 17.6667L153.667 17.3333z"/>
<path style="fill:#2d2123; stroke:none;" d="M155 17L155 18L159 18L155 17M91 18L91 19L94 19L91 18z"/>
<path style="fill:#6c0d15; stroke:none;" d="M94 18L94 19L97 19L94 18z"/>
<path style="fill:#a7151d; stroke:none;" d="M97 18L97 19L100 19L97 18M162 18L162 19L165 19L162 18z"/>
<path style="fill:#6c0d15; stroke:none;" d="M165 18L165 19L168 19L165 18z"/>
<path style="fill:#2d2123; stroke:none;" d="M168 18L168 19L171 19L168 18M103 19L103 20L107 20L103 19z"/>
<path style="fill:#6c0d15; stroke:none;" d="M107.667 19.3333L108.333 19.6667L107.667 19.3333z"/>
<path style="fill:#a7151d; stroke:none;" d="M109 19L109 20L113 20L109 19M174 19L174 20L178 20L174 19z"/>
<path style="fill:#6c0d15; stroke:none;" d="M178.667 19.3333L179.333 19.6667L178.667 19.3333z"/>
<path style="fill:#2d2123; stroke:none;" d="M180 19L180 20L184 20L180 19M115 20L115 21L119 21L115 20z"/>
<path style="fill:#6c0d15; stroke:none;" d="M119.667 20.3333L120.333 20.6667L119.667 20.3333z"/>
<path style="fill:#a7151d; stroke:none;" d="M121 20L121 21L125 21L121 20M186 20L186 21L190 21L186 20z"/>
<path style="fill:#6c0d15; stroke:none;" d="M190.667 20.3333L191.333 20.6667L190.667 20.3333z"/>
<path style="fill:#2d2123; stroke:none;" d="M192 20L192 21L196 21L192 20M128 21L128 22L131 22L128 21z"/>
<path style="fill:#6c0d15; stroke:none;" d="M131 21L131 22L134 22L131 21z"/>
<path style="fill:#a7151d; stroke:none;" d="M134 21L134 22L137 22L134 21M199 21L199 22L202 22L199 21z"/>
<path style="fill:#6c0d15; stroke:none;" d="M202 21L202 22L205 22L202 21z"/>
<path style="fill:#2d2123; stroke:none;" d="M205 21L205 22L208 22L205 21M140 22L140 23L144 23L140 22z"/>
<path style="fill:#6c0d15; stroke:none;" d="M144.667 22.3333L145.333 22.6667L144.667 22.3333z"/>
<path style="fill:#a7151d; stroke:none;" d="M146 22L146 23L150 23L146 22M211 22L211 23L215 23L211 22z"/>
<path style="fill:#6c0d15; stroke:none;" d="M215.667 22.3333L216.333 22.6667L215.667 22.3333z"/>
<path style="fill:#2d2123; stroke:none;" d="M217 22L217 23L221 23L217 22M152 23L152 24L156 24L152 23z"/>
<path style="fill:#6c0d15; stroke:none;" d="M156.667 23.3333L157.333 23.6667L156.667 23.3333z"/>
<path style="fill:#a7151d; stroke:none;" d="M158 23L158 24L162 24L158 23M224 23L224 24L227 24L224 23z"/>
<path style="fill:#6c0d15; stroke:none;" d="M227.667 23.3333L228.333 23.6667L227.667 23.3333z"/>
<path style="fill:#2d2123; stroke:none;" d="M229 23L229 24L233 24L229 23M165 24L165 25L168 25L165 24z"/>
<path style="fill:#6c0d15; stroke:none;" d="M168 24L168 25L171 25L168 24z"/>
<path style="fill:#a7151d; stroke:none;" d="M171 24L171 25L174 25L171 24M236 24L236 25L239 25L236 24z"/>
<path style="fill:#6c0d15; stroke:none;" d="M239 24L239 25L242 25L239 24z"/>
<path style="fill:#2d2123; stroke:none;" d="M242 24L242 25C245.837 25.9053 251.278 28.883 246 32C246 38.9953 245.662 44.1231 253 47C246.117 55.6193 237.004 42.2818 234 36L240 37L240 30C217.606 30.0173 227.017 62.547 247 61.5293C261.544 60.7886 269.071 43.6443 261.146 32.0147C256.414 25.0704 249.77 24.0051 242 24M177 25L177 26L181 26L177 25z"/>
<path style="fill:#6c0d15; stroke:none;" d="M181.667 25.3333L182.333 25.6667L181.667 25.3333z"/>
<path style="fill:#a7151d; stroke:none;" d="M183 25L183 26L187 26L183 25M245 25L245 46L241 46L241 30L240 30L240 37.0015C240.001 38.9342 241.841 51.858 245.397 44.6775C247.507 40.4185 246.783 29.2503 245 25z"/>
<path style="fill:#2d2123; stroke:none;" d="M189 26L189 27L193 27L189 26z"/>
<path style="fill:#6c0d15; stroke:none;" d="M193.667 26.3333L194.333 26.6667L193.667 26.3333z"/>
<path style="fill:#a7151d; stroke:none;" d="M195 26L195 27L199 27L195 26z"/>
<path style="fill:#2d2123; stroke:none;" d="M202 27L202 28L205 28L202 27z"/>
<path style="fill:#6c0d15; stroke:none;" d="M205 27L205 28L208 28L205 27z"/>
<path style="fill:#a7151d; stroke:none;" d="M208 27L208 28L211 28L208 27z"/>
<path style="fill:#010101; stroke:none;" d="M246 27L246 32C249.844 30.7225 249.844 28.2775 246 27z"/>
<path style="fill:#2d2123; stroke:none;" d="M214 28L214 29L218 29L214 28z"/>
<path style="fill:#6c0d15; stroke:none;" d="M218.667 28.3333L219.333 28.6667L218.667 28.3333z"/>
<path style="fill:#a7151d; stroke:none;" d="M220 28L220 29L224 29L220 28z"/>
<path style="fill:#2d2123; stroke:none;" d="M227 29L227 30L230 30L227 29z"/>
<path style="fill:#6c0d15; stroke:none;" d="M230.667 29.3333L231.333 29.6667L230.667 29.3333z"/>
<path style="fill:#a7151d; stroke:none;" d="M232 29L232 30L236 30L232 29z"/>
<path style="fill:#010101; stroke:none;" d="M249 35L249 36L256 46C262.499 42.2765 255 32.6742 249 35M234 36L240 44C239.944 39.295 239.43 35.6754 234 36M246 43L246 47L242 47L242 48C246.68 49.9884 250.083 52.485 253 47L246 43z"/>
<path style="fill:#6c0d15; stroke:none;" d="M240 46L241 47L240 46M245 46L246 47L245 46z"/>
<path style="fill:#2d2123; stroke:none;" d="M212 67L211 67C207.989 59.3251 200.216 60.7101 195.782 67.2238C190.855 74.4641 199.032 83.6751 206 84L203 89L208 91C209.332 88.1559 210.673 85.8034 207 85C211.174 80.0036 214.62 75.8585 214 69C218.321 69.3048 221.567 67.6985 224 72C247.994 63.8143 214.324 38.0967 211.268 59.9985C210.943 62.3257 211.58 64.7271 212 67M60 52L61 53L60 52z"/>
<path style="fill:#6c0d15; stroke:none;" d="M61 52L61 53L68 53L61 52M106 52L106 53L111 53L106 52z"/>
<path style="fill:#2d2123; stroke:none;" d="M120 52L121 53L120 52z"/>
<path style="fill:#6c0d15; stroke:none;" d="M121 52L121 53L128 53L121 52M140 52L140 53L148 53L140 52M302 52L302 53L310 53L302 52z"/>
<path style="fill:#a7151d; stroke:none;" d="M60 53L60 57L61 57L60 53z"/>
<path style="fill:#eb1d25; stroke:none;" d="M61 53L61 57C67.1063 58.8537 66 64.5963 66 70L66 108L70 108L70 100C70.0001 98.337 69.9469 96.6625 70.0193 95.0008C70.8501 75.9332 85.9316 104.122 88.6096 106.397C90.9186 108.358 94.1748 107.99 97 108L97 104C91.2274 103.088 81.8747 91.1611 83.9823 85C85.9827 79.152 92.1574 74.5684 95 69C83.7204 69.3738 82.3003 83.8547 70 84C70 73.3513 75.1094 53.0499 61 53z"/>
<path style="fill:#6c0d15; stroke:none;" d="M69 53L70 54L69 53z"/>
<path style="fill:#2d2123; stroke:none;" d="M105 53C105.155 57.724 106.11 59.619 111 60L111 59L106 59L105 53z"/>
<path style="fill:#eb1d25; stroke:none;" d="M106 53L106 59L111 59L111 53L106 53z"/>
<path style="fill:#a7151d; stroke:none;" d="M120 53L120 57L121 57L120 53z"/>
<path style="fill:#eb1d25; stroke:none;" d="M121 53L121 57C127.379 58.9365 126 65.4294 126 71L126 96C126 98.9107 125.088 103.947 127.028 106.397C128.888 108.746 133.374 107.998 136 108L136 104C128.771 102.82 130 95.8919 130 90C130 78.8187 135.696 53.0519 121 53z"/>
<path style="fill:#6c0d15; stroke:none;" d="M129 53L130 54L129 53z"/>
<path style="fill:#eb1d25; stroke:none;" d="M140 53L140 57L145 57L145 92L146.179 105.682L155 108L155 104L150 104L150 68L148.821 54.6034L140 53z"/>
<path style="fill:#2d2123; stroke:none;" d="M149 53L150 54L149 53z"/>
<path style="fill:#eb1d25; stroke:none;" d="M302 53L302 57C308.899 58.1261 308 64.2675 308 70L308 108L312 108L312 88C326.516 88.4711 323.938 107.947 339 108L339 104C332.979 103.051 323.855 91.4261 325.826 85C327.614 79.1741 333.946 74.3085 337 69C325.53 69.3753 324.224 83.8556 312 84C312 72.272 317.305 53.0118 302 53z"/>
<path style="fill:#6c0d15; stroke:none;" d="M311 53L312 54L311 53z"/>
<path style="fill:#2d2123; stroke:none;" d="M70 54L71 55L70 54M130 54L131 55L130 54z"/>
<path style="fill:#a7151d; stroke:none;" d="M149 54L150 55L149 54z"/>
<path style="fill:#2d2123; stroke:none;" d="M312.333 54.6667L312.667 55.3333L312.333 54.6667z"/>
<path style="fill:#a7151d; stroke:none;" d="M70 55L70 84L71 84L70 55M130 55L130 102L131 102C131 88.735 135.11 67.1766 130 55z"/>
<path style="fill:#2d2123; stroke:none;" d="M150.333 55.6667L150.667 56.3333L150.333 55.6667z"/>
<path style="fill:#010101; stroke:none;" d="M241.333 55.6667L241.667 56.3333L241.333 55.6667M219.321 57.1366C214.575 59.6643 220.05 68.2819 224.472 65.7122C228.952 63.109 223.839 54.7301 219.321 57.1366z"/>
<path style="fill:#6c0d15; stroke:none;" d="M312 56L312 83L313 83L312 56z"/>
<path style="fill:#2d2123; stroke:none;" d="M60 57L60 58L64 58L60 57z"/>
<path style="fill:#6c0d15; stroke:none;" d="M64 57L65 58L64 57z"/>
<path style="fill:#2d2123; stroke:none;" d="M120 57L120 58L124 58L120 57z"/>
<path style="fill:#6c0d15; stroke:none;" d="M124 57L125 58L124 57z"/>
<path style="fill:#2d2123; stroke:none;" d="M140 57L140 58L145 59L140 57z"/>
<path style="fill:#a7151d; stroke:none;" d="M144 57L145 58L144 57z"/>
<path style="fill:#6c0d15; stroke:none;" d="M150 57L150 102L151 102C151 89.258 154.91 68.7012 150 57z"/>
<path style="fill:#2d2123; stroke:none;" d="M302 57L302 58L306 58L302 57z"/>
<path style="fill:#6c0d15; stroke:none;" d="M306 57L307 58L306 57z"/>
<path style="fill:#a7151d; stroke:none;" d="M444 57L444 58L449 58L444 57z"/>
<path style="fill:#2d2123; stroke:none;" d="M449 57L449 68L450 68L449 57z"/>
<path style="fill:#a7151d; stroke:none;" d="M65 58L66 59L65 58M125 58L126 59L125 58z"/>
<path style="fill:#eb1d25; stroke:none;" d="M444 58L444 69L439 69L439 73L444 73C444 81.855 441.97 93.7266 445.97 101.907C448.509 107.1 458.626 112.207 460 104C444.948 103.175 449 83.6704 449 73L459 73L459 69L449 69L449 58L444 58z"/>
<path style="fill:#6c0d15; stroke:none;" d="M65 59L65 96C65 101.335 63.454 107.908 70 109L70 108L66 108C66 94.2121 70.309 71.652 65 59M125 59L125 105L126 105C126 91.9966 130.01 70.9389 125 59z"/>
<path style="fill:#a7151d; stroke:none;" d="M307 59L307 108L308 108C308 94.2121 312.309 71.652 307 59z"/>
<path style="fill:#2d2123; stroke:none;" d="M37.6667 67.3333L38.3333 67.6667L37.6667 67.3333z"/>
<path style="fill:#6c0d15; stroke:none;" d="M39 67L39 68L44 68L39 67z"/>
<path style="fill:#2d2123; stroke:none;" d="M44 67L45 68L44 67M243 67L243 68L246 68L243 67z"/>
<path style="fill:#6c0d15; stroke:none;" d="M246 67L246 68L250 68L246 67z"/>
<path style="fill:#2d2123; stroke:none;" d="M250.667 67.3333L251.333 67.6667L250.667 67.3333M359 67L359 68L362 68L359 67z"/>
<path style="fill:#6c0d15; stroke:none;" d="M362 67L362 68L366 68L362 67z"/>
<path style="fill:#2d2123; stroke:none;" d="M366.667 67.3333L367.333 67.6667L366.667 67.3333M34 68L35 69L34 68z"/>
<path style="fill:#a7151d; stroke:none;" d="M35 68L36 69L35 68z"/>
<path style="fill:#eb1d25; stroke:none;" d="M26 102L26 103C33.5869 109.218 60.7963 112.707 54.1026 95.0147C50.6474 85.8822 36.531 87.8956 33.5231 79.2708C30.5002 70.6027 45.7852 71.4837 49 78L53 78C52.6223 66.3698 33.1849 63.4137 28.7423 74.0941C23.1249 87.5987 41.9108 88.3142 47.6628 95.213C51.6395 99.9825 45.7978 104.672 41 104.797C35.2202 104.948 31.6711 99.7272 26 102z"/>
<path style="fill:#6c0d15; stroke:none;" d="M47.6667 68.3333L48.3333 68.6667L47.6667 68.3333z"/>
<path style="fill:#2d2123; stroke:none;" d="M89 68L90 69L89 68z"/>
<path style="fill:#6c0d15; stroke:none;" d="M90 68L90 69L96 70L90 68z"/>
<path style="fill:#2d2123; stroke:none;" d="M96 68L97 69L96 68z"/>
<path style="fill:#6c0d15; stroke:none;" d="M101 68L101 69L108 69L101 68z"/>
<path style="fill:#2d2123; stroke:none;" d="M108 68L109 69L108 68M158 68L159 69L158 68z"/>
<path style="fill:#6c0d15; stroke:none;" d="M158 73L159 73L159 69L164 69C160.264 67.5806 158.615 69.3139 158 73z"/>
<path style="fill:#2d2123; stroke:none;" d="M188 68L189 69L188 68z"/>
<path style="fill:#6c0d15; stroke:none;" d="M189 68L189 69L194 69L189 68z"/>
<path style="fill:#010101; stroke:none;" d="M213 68L214 69L213 68z"/>
<path style="fill:#a7151d; stroke:none;" d="M219 68L219 69L223 71L219 68z"/>
<path style="fill:#2d2123; stroke:none;" d="M240 68L241 69L240 68z"/>
<path style="fill:#6c0d15; stroke:none;" d="M241 68L242 69L241 68z"/>
<path style="fill:#a7151d; stroke:none;" d="M242 68L243 69L242 68z"/>
<path style="fill:#eb1d25; stroke:none;" d="M243 68.5293C216.586 74.6232 226.851 114.514 253 108.471C279.291 102.395 269.092 62.5097 243 68.5293z"/>
<path style="fill:#a7151d; stroke:none;" d="M253 68L254 69L253 68z"/>
<path style="fill:#6c0d15; stroke:none;" d="M254 68L255 69L254 68z"/>
<path style="fill:#2d2123; stroke:none;" d="M255 68L256 69L255 68M274 68L275 69L274 68z"/>
<path style="fill:#6c0d15; stroke:none;" d="M275 68L275 69L282 69L275 68z"/>
<path style="fill:#2d2123; stroke:none;" d="M293 68L294 69L293 68z"/>
<path style="fill:#6c0d15; stroke:none;" d="M294 68L295 69L294 68z"/>
<path style="fill:#a7151d; stroke:none;" d="M295.667 68.3333L296.333 68.6667L295.667 68.3333z"/>
<path style="fill:#eb1d25; stroke:none;" d="M284 78C283.974 70.6768 282.323 69.0259 275 69L275 73C284.078 75.7559 280 99.9435 280 108L284 108C284 95.2177 282.37 75.6414 299 73L299 68C291.561 69.5561 289.034 72.8041 284 78z"/>
<path style="fill:#2d2123; stroke:none;" d="M299 68L300 69L299 68M331 68L332 69L331 68z"/>
<path style="fill:#6c0d15; stroke:none;" d="M332 68L332 69L338 70L332 68z"/>
<path style="fill:#2d2123; stroke:none;" d="M356 68L357 69L356 68z"/>
<path style="fill:#a7151d; stroke:none;" d="M357.667 68.3333L358.333 68.6667L357.667 68.3333z"/>
<path style="fill:#eb1d25; stroke:none;" d="M359 68.5293C332.418 74.662 342.738 114.54 369 108.471C394.98 102.467 384.9 62.5539 359 68.5293z"/>
<path style="fill:#6c0d15; stroke:none;" d="M369.667 68.3333L370.333 68.6667L369.667 68.3333M390 68L390 69L398 69L390 68M424 68L424 69L429 69L429 102C431.959 94.9484 433.185 68.7157 424 68z"/>
<path style="fill:#2d2123; stroke:none;" d="M429 68L430 69L429 68M438 68L439 69L438 68z"/>
<path style="fill:#6c0d15; stroke:none;" d="M439 68L439 69L444 69L439 68M449 68L449 69L459 69L449 68z"/>
<path style="fill:#2d2123; stroke:none;" d="M459 68L459 73L460 73L459 68z"/>
<path style="fill:#6c0d15; stroke:none;" d="M32 69L33 70L32 69M50 69L51 70L50 69z"/>
<path style="fill:#2d2123; stroke:none;" d="M100 69L104 74L104 73L101 73L100 69z"/>
<path style="fill:#eb1d25; stroke:none;" d="M101 69L101 73L106 73C106 84.6057 100.4 107.945 116 108L116 104L111 104C111 92.3942 116.6 69.0551 101 69z"/>
<path style="fill:#6c0d15; stroke:none;" d="M109 69L110 70L109 69z"/>
<path style="fill:#2d2123; stroke:none;" d="M110 69L111 70L110 69z"/>
<path style="fill:#eb1d25; stroke:none;" d="M159 69L159 73C167.145 77.6349 174.034 125.89 183.333 98L186.333 89C187.791 84.6263 189.131 80.2154 191 76C192.869 80.2155 194.209 84.6263 195.667 89L198.667 98C207.993 125.972 214.837 77.6452 223 73L223 69C210.857 69.3954 207.794 93.1525 205 103L194 69L188 69L178 103C172.154 93.5848 172.46 69.4383 159 69z"/>
<path style="fill:#6c0d15; stroke:none;" d="M165 69L166 70L165 69z"/>
<path style="fill:#010101; stroke:none;" d="M201.606 70.0471C197.945 72.7818 202.496 79.7342 206.53 76.9529C210.574 74.1648 205.508 67.133 201.606 70.0471M214.333 69.6667L214.667 70.3333L214.333 69.6667z"/>
<path style="fill:#6c0d15; stroke:none;" d="M216 69L217 70L216 69z"/>
<path style="fill:#2d2123; stroke:none;" d="M233 69L232 74L233 74L233 69M238 69L239 70L238 69z"/>
<path style="fill:#a7151d; stroke:none;" d="M239 69L240 70L239 69z"/>
<path style="fill:#6c0d15; stroke:none;" d="M256.667 69.3333L257.333 69.6667L256.667 69.3333z"/>
<path style="fill:#a7151d; stroke:none;" d="M274 69L274 73L275 73L274 69z"/>
<path style="fill:#6c0d15; stroke:none;" d="M283 69L284 70L283 69z"/>
<path style="fill:#2d2123; stroke:none;" d="M291 69L292 70L291 69z"/>
<path style="fill:#a7151d; stroke:none;" d="M292 69L293 70L292 69z"/>
<path style="fill:#6c0d15; stroke:none;" d="M299 69L297 73L297 74L299 69M330 69L331 70L330 69z"/>
<path style="fill:#2d2123; stroke:none;" d="M354 69L355 70L354 69z"/>
<path style="fill:#a7151d; stroke:none;" d="M355 69L356 70L355 69z"/>
<path style="fill:#6c0d15; stroke:none;" d="M372.667 69.3333L373.333 69.6667L372.667 69.3333z"/>
<path style="fill:#eb1d25; stroke:none;" d="M390 69L390 73L395 73C395 81.9695 392.837 94.7754 397.175 102.985C403.36 114.688 419.298 108.038 424 99L425 99C425.026 106.323 426.677 107.974 434 108L434 104C424.922 101.244 429 77.0565 429 69L424 69L423.999 85C423.952 94.7591 411.102 114.308 401.858 99.9452C396.49 91.605 403.538 79.7136 399.258 71.3179C397.659 68.1813 392.909 69.0023 390 69z"/>
<path style="fill:#2d2123; stroke:none;" d="M399 69L400 70L399 69z"/>
<path style="fill:#6c0d15; stroke:none;" d="M438 69L438 73L439 73L438 69z"/>
<path style="fill:#2d2123; stroke:none;" d="M30 70L31 71L30 70z"/>
<path style="fill:#a7151d; stroke:none;" d="M31 70L32 71L31 70z"/>
<path style="fill:#6c0d15; stroke:none;" d="M51 70L52 71L51 70M88 70L89 71L88 70z"/>
<path style="fill:#a7151d; stroke:none;" d="M94 70L95 71L94 70M110 70L111 71L110 70z"/>
<path style="fill:#6c0d15; stroke:none;" d="M166 70L167 71L166 70M187.333 70.6667L187.667 71.3333L187.333 70.6667M215 70L216 71L215 70z"/>
<path style="fill:#2d2123; stroke:none;" d="M236 70L237 71L236 70z"/>
<path style="fill:#a7151d; stroke:none;" d="M237 70L238 71L237 70z"/>
<path style="fill:#6c0d15; stroke:none;" d="M258.667 70.3333L259.333 70.6667L258.667 70.3333z"/>
<path style="fill:#2d2123; stroke:none;" d="M284 70L285 71L284 70z"/>
<path style="fill:#6c0d15; stroke:none;" d="M290 70L291 71L290 70M336 70L337 71L336 70z"/>
<path style="fill:#2d2123; stroke:none;" d="M352 70L353 71L352 70z"/>
<path style="fill:#a7151d; stroke:none;" d="M353 70L354 71L353 70z"/>
<path style="fill:#6c0d15; stroke:none;" d="M374 70L375 71L374 70z"/>
<path style="fill:#2d2123; stroke:none;" d="M375 70L376 71L375 70z"/>
<path style="fill:#a7151d; stroke:none;" d="M399 70L400 71L399 70z"/>
<path style="fill:#2d2123; stroke:none;" d="M29 71L30 72L29 71z"/>
<path style="fill:#6c0d15; stroke:none;" d="M52 71L53 72L52 71M87 71L88 72L87 71z"/>
<path style="fill:#a7151d; stroke:none;" d="M194 71L195 72L194 71z"/>
<path style="fill:#6c0d15; stroke:none;" d="M223.333 71.6667L223.667 72.3333L223.333 71.6667M235 71L236 72L235 71M260 71L261 72L260 71M284 71L285 72L284 71z"/>
<path style="fill:#a7151d; stroke:none;" d="M329 71L330 72L329 71M335 71L336 72L335 71M351 71L352 72L351 71z"/>
<path style="fill:#6c0d15; stroke:none;" d="M376 71L377 72L376 71z"/>
<path style="fill:#2d2123; stroke:none;" d="M400.333 71.6667L400.667 72.3333L400.333 71.6667z"/>
<path style="fill:#a7151d; stroke:none;" d="M37 72L38 73L37 72z"/>
<path style="fill:#6c0d15; stroke:none;" d="M38 72L39 73L38 72z"/>
<path style="fill:#2d2123; stroke:none;" d="M39 72L39 73L43 73L39 72z"/>
<path style="fill:#6c0d15; stroke:none;" d="M43.6667 72.3333L44.3333 72.6667L43.6667 72.3333z"/>
<path style="fill:#2d2123; stroke:none;" d="M53 72L54 73L53 72z"/>
<path style="fill:#6c0d15; stroke:none;" d="M86 72L87 73L86 72M93 72L94 73L93 72z"/>
<path style="fill:#2d2123; stroke:none;" d="M111 72L111 103L112 103L111 72M167 72L168 73L167 72z"/>
<path style="fill:#6c0d15; stroke:none;" d="M214 72L215 73L214 72z"/>
<path style="fill:#010101; stroke:none;" d="M232 72L233 73L232 72z"/>
<path style="fill:#a7151d; stroke:none;" d="M234 72L235 73L234 72M244.667 72.3333L245.333 72.6667L244.667 72.3333z"/>
<path style="fill:#6c0d15; stroke:none;" d="M246 72L246 73L251 73L246 72z"/>
<path style="fill:#a7151d; stroke:none;" d="M251 72L252 73L251 72z"/>
<path style="fill:#6c0d15; stroke:none;" d="M261 72L262 73L261 72z"/>
<path style="fill:#a7151d; stroke:none;" d="M284 72L284 77L285 77L284 72z"/>
<path style="fill:#6c0d15; stroke:none;" d="M288 72L289 73L288 72M328 72L329 73L328 72z"/>
<path style="fill:#2d2123; stroke:none;" d="M349 72L350 73L349 72z"/>
<path style="fill:#a7151d; stroke:none;" d="M350 72L351 73L350 72M360.667 72.3333L361.333 72.6667L360.667 72.3333z"/>
<path style="fill:#6c0d15; stroke:none;" d="M362 72L362 73L366 73L362 72z"/>
<path style="fill:#a7151d; stroke:none;" d="M366 72L367 73L366 72z"/>
<path style="fill:#6c0d15; stroke:none;" d="M377 72L378 73L377 72M28 73L29 74L28 73M35 73L36 74L35 73z"/>
<path style="fill:#2d2123; stroke:none;" d="M36 73L37 74L36 73z"/>
<path style="fill:#6c0d15; stroke:none;" d="M46 73L47 74L46 73z"/>
<path style="fill:#a7151d; stroke:none;" d="M53 73L53 78L54 78L53 73z"/>
<path style="fill:#6c0d15; stroke:none;" d="M92 73L93 74L92 73M104 73L105 74L104 73z"/>
<path style="fill:#a7151d; stroke:none;" d="M105 73L106 74L105 73z"/>
<path style="fill:#2d2123; stroke:none;" d="M159 73L160 74L159 73z"/>
<path style="fill:#6c0d15; stroke:none;" d="M160 73L161 74L160 73z"/>
<path style="fill:#a7151d; stroke:none;" d="M161 73L162 74L161 73M167 73L168 74L167 73z"/>
<path style="fill:#6c0d15; stroke:none;" d="M186.333 73.6667L186.667 74.3333L186.333 73.6667z"/>
<path style="fill:#a7151d; stroke:none;" d="M214 73L215 74L214 73M220 73L221 74L220 73z"/>
<path style="fill:#2d2123; stroke:none;" d="M221 73L221 74L224 74L221 73M228 73L229 76L228 73z"/>
<path style="fill:#a7151d; stroke:none;" d="M241 73L242 74L241 73z"/>
<path style="fill:#2d2123; stroke:none;" d="M242.667 73.3333L243.333 73.6667L242.667 73.3333z"/>
<path style="fill:#010101; stroke:none;" d="M244 73.5332C224.989 78.1483 232.657 108.044 252 103.606C270.857 99.279 263.495 68.8006 244 73.5332z"/>
<path style="fill:#6c0d15; stroke:none;" d="M253 73L254 74L253 73z"/>
<path style="fill:#2d2123; stroke:none;" d="M263 73L264 74L263 73M274 73L274 74L278 74L274 73z"/>
<path style="fill:#6c0d15; stroke:none;" d="M278 73L279 74L278 73M287 73L288 74L287 73z"/>
<path style="fill:#a7151d; stroke:none;" d="M295.667 73.3333L296.333 73.6667L295.667 73.3333z"/>
<path style="fill:#2d2123; stroke:none;" d="M299 73L300 74L299 73z"/>
<path style="fill:#6c0d15; stroke:none;" d="M327 73L328 74L327 73z"/>
<path style="fill:#2d2123; stroke:none;" d="M334 73L335 74L334 73M348 73L349 74L348 73z"/>
<path style="fill:#a7151d; stroke:none;" d="M357 73L358 74L357 73z"/>
<path style="fill:#2d2123; stroke:none;" d="M358.667 73.3333L359.333 73.6667L358.667 73.3333z"/>
<path style="fill:#010101; stroke:none;" d="M360 73.5332C340.981 78.1271 348.545 108.196 368 103.467C386.819 98.8926 379.302 68.871 360 73.5332z"/>
<path style="fill:#2d2123; stroke:none;" d="M368 73L369 74L368 73z"/>
<path style="fill:#6c0d15; stroke:none;" d="M369 73L370 74L369 73z"/>
<path style="fill:#a7151d; stroke:none;" d="M378 73L379 74L378 73z"/>
<path style="fill:#2d2123; stroke:none;" d="M390 73L390 74L395 75L390 73z"/>
<path style="fill:#6c0d15; stroke:none;" d="M394 73L395 74L394 73M400 73L400 95L401 95L400 73z"/>
<path style="fill:#2d2123; stroke:none;" d="M443 73L443 94L444 94L443 73M449 73L449 95L450 95L449 73z"/>
<path style="fill:#6c0d15; stroke:none;" d="M34 74L35 75L34 74z"/>
<path style="fill:#a7151d; stroke:none;" d="M85 74L86 75L85 74z"/>
<path style="fill:#6c0d15; stroke:none;" d="M91 74L92 75L91 74z"/>
<path style="fill:#2d2123; stroke:none;" d="M105 74L105 104L106 104L105 74M168.333 74.6667L168.667 75.3333L168.333 74.6667z"/>
<path style="fill:#a7151d; stroke:none;" d="M195 74L196 75L195 74M239 74L240 75L239 74z"/>
<path style="fill:#2d2123; stroke:none;" d="M240 74L241 75L240 74z"/>
<path style="fill:#6c0d15; stroke:none;" d="M255 74L256 75L255 74z"/>
<path style="fill:#a7151d; stroke:none;" d="M263 74L264 75L263 74M279 74L279 108L280 108L279 74z"/>
<path style="fill:#6c0d15; stroke:none;" d="M286 74L287 75L286 74z"/>
<path style="fill:#a7151d; stroke:none;" d="M292 74L293 75L292 74z"/>
<path style="fill:#2d2123; stroke:none;" d="M293 74L294 75L293 74z"/>
<path style="fill:#6c0d15; stroke:none;" d="M333 74L334 75L333 74z"/>
<path style="fill:#2d2123; stroke:none;" d="M347 74L348 75L347 74z"/>
<path style="fill:#a7151d; stroke:none;" d="M355 74L356 75L355 74z"/>
<path style="fill:#2d2123; stroke:none;" d="M356 74L357 75L356 74z"/>
<path style="fill:#6c0d15; stroke:none;" d="M371 74L372 75L371 74z"/>
<path style="fill:#a7151d; stroke:none;" d="M379 74L380 75L379 74z"/>
<path style="fill:#6c0d15; stroke:none;" d="M27 75L27 78L28 78L27 75M33 75L34 76L33 75z"/>
<path style="fill:#a7151d; stroke:none;" d="M48 75L49 76L48 75z"/>
<path style="fill:#6c0d15; stroke:none;" d="M84 75L85 76L84 75z"/>
<path style="fill:#a7151d; stroke:none;" d="M90 75L91 76L90 75z"/>
<path style="fill:#2d2123; stroke:none;" d="M162.333 75.6667L162.667 76.3333L162.333 75.6667M179 93L186 75C176.758 77.4194 174.846 85.0648 179 93z"/>
<path style="fill:#a7151d; stroke:none;" d="M213.333 75.6667L213.667 76.3333L213.333 75.6667z"/>
<path style="fill:#6c0d15; stroke:none;" d="M219 75L220 76L219 75z"/>
<path style="fill:#a7151d; stroke:none;" d="M231 75L232 76L231 75z"/>
<path style="fill:#6c0d15; stroke:none;" d="M238 75L239 76L238 75M257 75L258 76L257 75z"/>
<path style="fill:#a7151d; stroke:none;" d="M264 75L265 76L264 75z"/>
<path style="fill:#6c0d15; stroke:none;" d="M291 75L292 76L291 75z"/>
<path style="fill:#a7151d; stroke:none;" d="M326 75L327 76L326 75z"/>
<path style="fill:#6c0d15; stroke:none;" d="M332 75L333 76L332 75z"/>
<path style="fill:#a7151d; stroke:none;" d="M347 75L348 76L347 75z"/>
<path style="fill:#6c0d15; stroke:none;" d="M354 75L355 76L354 75z"/>
<path style="fill:#a7151d; stroke:none;" d="M373 75L374 76L373 75z"/>
<path style="fill:#6c0d15; stroke:none;" d="M380 75L381 76L380 75z"/>
<path style="fill:#2d2123; stroke:none;" d="M48.3333 76.6667L48.6667 77.3333L48.3333 76.6667z"/>
<path style="fill:#6c0d15; stroke:none;" d="M83 76L84 77L83 76z"/>
<path style="fill:#2d2123; stroke:none;" d="M90 76L91 77L90 76z"/>
<path style="fill:#a7151d; stroke:none;" d="M168 76L169 77L168 76z"/>
<path style="fill:#6c0d15; stroke:none;" d="M185 76L186 77L185 76z"/>
<path style="fill:#a7151d; stroke:none;" d="M190 76L190 78L192 76L190 76z"/>
<path style="fill:#2d2123; stroke:none;" d="M225.333 76.6667L225.667 77.3333L225.333 76.6667z"/>
<path style="fill:#6c0d15; stroke:none;" d="M230 76L231 77L230 76M237 76L238 77L237 76M258 76L259 77L258 76M265 76L266 77L265 76M285 76L284 78L286 78L285 76z"/>
<path style="fill:#2d2123; stroke:none;" d="M290 76L291 77L290 76z"/>
<path style="fill:#6c0d15; stroke:none;" d="M325 76L326 77L325 76z"/>
<path style="fill:#a7151d; stroke:none;" d="M331 76L332 77L331 76z"/>
<path style="fill:#6c0d15; stroke:none;" d="M346 76L347 77L346 76M353 76L354 77L353 76M374 76L375 77L374 76M381 76L382 77L381 76z"/>
<path style="fill:#2d2123; stroke:none;" d="M82 77L83 78L82 77z"/>
<path style="fill:#6c0d15; stroke:none;" d="M89 77L90 78L89 77z"/>
<path style="fill:#a7151d; stroke:none;" d="M163 77L164 78L163 77z"/>
<path style="fill:#2d2123; stroke:none;" d="M169.333 77.6667L169.667 78.3333L169.333 77.6667z"/>
<path style="fill:#a7151d; stroke:none;" d="M185 77L186 78L185 77z"/>
<path style="fill:#2d2123; stroke:none;" d="M191 77L190.753 87.8565L183 101L186 100L185 97L197 93L191 77z"/>
<path style="fill:#a7151d; stroke:none;" d="M196 77L197 78L196 77z"/>
<path style="fill:#6c0d15; stroke:none;" d="M218.333 77.6667L218.667 78.3333L218.333 77.6667M229.333 77.6667L229.667 78.3333L229.333 77.6667M236 77L237 78L236 77M259 77L260 78L259 77z"/>
<path style="fill:#2d2123; stroke:none;" d="M266 77L267 78L266 77z"/>
<path style="fill:#6c0d15; stroke:none;" d="M289 77L290 78L289 77M324 77L325 78L324 77M345 77L346 78L345 77M352 77L353 78L352 77M375 77L376 78L375 77z"/>
<path style="fill:#a7151d; stroke:none;" d="M27.3333 78.6667L27.6667 79.3333L27.3333 78.6667M32 78L33 79L32 78z"/>
<path style="fill:#2d2123; stroke:none;" d="M49 78L49 79L54 79L49 78z"/>
<path style="fill:#a7151d; stroke:none;" d="M82 78L83 79L82 78z"/>
<path style="fill:#6c0d15; stroke:none;" d="M88 78L89 79L88 78z"/>
<path style="fill:#2d2123; stroke:none;" d="M163.333 78.6667L163.667 79.3333L163.333 78.6667z"/>
<path style="fill:#6c0d15; stroke:none;" d="M212.333 78.6667L212.667 79.3333L212.333 78.6667M235 78L236 79L235 78z"/>
<path style="fill:#a7151d; stroke:none;" d="M260 78L261 79L260 78M266 78L267 79L266 78z"/>
<path style="fill:#6c0d15; stroke:none;" d="M288 78L289 79L288 78z"/>
<path style="fill:#2d2123; stroke:none;" d="M323 78L324 79L323 78z"/>
<path style="fill:#6c0d15; stroke:none;" d="M330 78L331 79L330 78M351 78L352 79L351 78z"/>
<path style="fill:#a7151d; stroke:none;" d="M376 78L377 79L376 78z"/>
<path style="fill:#6c0d15; stroke:none;" d="M382 78L383 79L382 78M81 79L82 80L81 79M87 79L88 80L87 79z"/>
<path style="fill:#a7151d; stroke:none;" d="M169 79L170 80L169 79M184 79L185 80L184 79M189 79L190 80L189 79M192.333 79.6667L192.667 80.3333L192.333 79.6667z"/>
<path style="fill:#2d2123; stroke:none;" d="M218 79L216 87C218.529 84.5245 219.36 82.3707 218 79z"/>
<path style="fill:#6c0d15; stroke:none;" d="M228 79L229 80L228 79z"/>
<path style="fill:#2d2123; stroke:none;" d="M267 79L268 80L267 79z"/>
<path style="fill:#a7151d; stroke:none;" d="M287 79L288 80L287 79z"/>
<path style="fill:#6c0d15; stroke:none;" d="M329 79L330 80L329 79M344 79L345 80L344 79M350.333 79.6667L350.667 80.3333L350.333 79.6667z"/>
<path style="fill:#2d2123; stroke:none;" d="M376 79L377 80L376 79M383 79L384 80L383 79z"/>
<path style="fill:#6c0d15; stroke:none;" d="M27 80L28 81L27 80M33 80L34 81L33 80M80 80L81 81L80 80z"/>
<path style="fill:#a7151d; stroke:none;" d="M164 80L165 81L164 80z"/>
<path style="fill:#6c0d15; stroke:none;" d="M184 80L185 81L184 80M189 80L190 81L189 80z"/>
<path style="fill:#a7151d; stroke:none;" d="M197 80L198 81L197 80z"/>
<path style="fill:#010101; stroke:none;" d="M211 80L207 85L211 80z"/>
<path style="fill:#a7151d; stroke:none;" d="M217.333 80.6667L217.667 81.3333L217.333 80.6667M228 80L229 81L228 80z"/>
<path style="fill:#6c0d15; stroke:none;" d="M234 80L235 81L234 80M261 80L262 81L261 80z"/>
<path style="fill:#a7151d; stroke:none;" d="M267 80L268 81L267 80z"/>
<path style="fill:#6c0d15; stroke:none;" d="M287 80L288 81L287 80M322 80L323 81L322 80M328 80L329 81L328 80M377 80L378 81L377 80z"/>
<path style="fill:#a7151d; stroke:none;" d="M383.333 80.6667L383.667 81.3333L383.333 80.6667z"/>
<path style="fill:#2d2123; stroke:none;" d="M27 81L28 82L27 81z"/>
<path style="fill:#6c0d15; stroke:none;" d="M34 81L35 82L34 81z"/>
<path style="fill:#2d2123; stroke:none;" d="M79 81L80 82L79 81M86 81L87 82L86 81M164.333 81.6667L164.667 82.3333L164.333 81.6667M170 81L171 82L170 81z"/>
<path style="fill:#6c0d15; stroke:none;" d="M211.333 81.6667L211.667 82.3333L211.333 81.6667z"/>
<path style="fill:#a7151d; stroke:none;" d="M233 81L234 82L233 81M262 81L263 82L262 81z"/>
<path style="fill:#6c0d15; stroke:none;" d="M321 81L322 82L321 81z"/>
<path style="fill:#a7151d; stroke:none;" d="M327 81L328 82L327 81z"/>
<path style="fill:#2d2123; stroke:none;" d="M343 81L344 82L343 81z"/>
<path style="fill:#6c0d15; stroke:none;" d="M349.333 81.6667L349.667 82.3333L349.333 81.6667z"/>
<path style="fill:#a7151d; stroke:none;" d="M28 82L29 83L28 82z"/>
<path style="fill:#6c0d15; stroke:none;" d="M35 82L36 83L35 82M78 82L79 83L78 82M85 82L86 83L85 82z"/>
<path style="fill:#a7151d; stroke:none;" d="M170 82L171 83L170 82z"/>
<path style="fill:#6c0d15; stroke:none;" d="M183.333 82.6667L183.667 83.3333L183.333 82.6667z"/>
<path style="fill:#a7151d; stroke:none;" d="M188 82L189 83L188 82z"/>
<path style="fill:#010101; stroke:none;" d="M189 82L186 91C191.605 90.106 192.858 86.1387 189 82z"/>
<path style="fill:#a7151d; stroke:none;" d="M193.333 82.6667L193.667 83.3333L193.333 82.6667z"/>
<path style="fill:#6c0d15; stroke:none;" d="M227.333 82.6667L227.667 83.3333L227.333 82.6667M233 82L234 83L233 82M262 82L263 83L262 82z"/>
<path style="fill:#2d2123; stroke:none;" d="M268 82L269 83L268 82z"/>
<path style="fill:#6c0d15; stroke:none;" d="M286 82L287 83L286 82M320 82L321 83L320 82z"/>
<path style="fill:#2d2123; stroke:none;" d="M327 82L328 83L327 82z"/>
<path style="fill:#6c0d15; stroke:none;" d="M343 82L344 83L343 82z"/>
<path style="fill:#a7151d; stroke:none;" d="M378 82L379 83L378 82z"/>
<path style="fill:#2d2123; stroke:none;" d="M384.333 82.6667L384.667 83.3333L384.333 82.6667M28 83L29 84L28 83z"/>
<path style="fill:#6c0d15; stroke:none;" d="M36.6667 83.3333L37.3333 83.6667L36.6667 83.3333z"/>
<path style="fill:#2d2123; stroke:none;" d="M71 83L71 84L76 84L71 83z"/>
<path style="fill:#6c0d15; stroke:none;" d="M76 83L77 84L76 83z"/>
<path style="fill:#a7151d; stroke:none;" d="M77 83L78 84L77 83z"/>
<path style="fill:#6c0d15; stroke:none;" d="M84 83L85 84L84 83z"/>
<path style="fill:#a7151d; stroke:none;" d="M165 83L166 84L165 83z"/>
<path style="fill:#010101; stroke:none;" d="M182.333 83.6667L182.667 84.3333L182.333 83.6667z"/>
<path style="fill:#6c0d15; stroke:none;" d="M188 83L189 84L188 83z"/>
<path style="fill:#a7151d; stroke:none;" d="M198 83L199 84L198 83z"/>
<path style="fill:#010101; stroke:none;" d="M199 83L205 100L208 91L203 89L206 84L199 83z"/>
<path style="fill:#a7151d; stroke:none;" d="M216.333 83.6667L216.667 84.3333L216.333 83.6667z"/>
<path style="fill:#2d2123; stroke:none;" d="M262 83L263 84L262 83z"/>
<path style="fill:#a7151d; stroke:none;" d="M268.333 83.6667L268.667 84.3333L268.333 83.6667M312 83L313 84L312 83z"/>
<path style="fill:#2d2123; stroke:none;" d="M313 83L313 84L318 84L313 83z"/>
<path style="fill:#6c0d15; stroke:none;" d="M318 83L319 84L318 83z"/>
<path style="fill:#a7151d; stroke:none;" d="M319 83L320 84L319 83z"/>
<path style="fill:#6c0d15; stroke:none;" d="M326 83L327 84L326 83z"/>
<path style="fill:#a7151d; stroke:none;" d="M343 83L344 84L343 83z"/>
<path style="fill:#2d2123; stroke:none;" d="M378 83L379 84L378 83z"/>
<path style="fill:#6c0d15; stroke:none;" d="M29 84L30 85L29 84M38.6667 84.3333L39.3333 84.6667L38.6667 84.3333M83 84L84 85L83 84z"/>
<path style="fill:#2d2123; stroke:none;" d="M174 109L169 93C165.301 91.9015 162.247 84.0042 158.177 85.3457C154.431 86.5808 157.342 91.1107 158.599 93C162.377 98.6801 166.795 107.837 174 109M165 84L166 85L165 84M171 84L172 85L171 84z"/>
<path style="fill:#6c0d15; stroke:none;" d="M210.333 84.6667L210.667 85.3333L210.333 84.6667z"/>
<path style="fill:#a7151d; stroke:none;" d="M232 84L233 85L232 84M263.333 84.6667L263.667 85.3333L263.333 84.6667M285 84L286 85L285 84z"/>
<path style="fill:#6c0d15; stroke:none;" d="M325 84L326 85L325 84M348 84L348 87L349 87L348 84z"/>
<path style="fill:#a7151d; stroke:none;" d="M384 84L384 87L385 87L384 84z"/>
<path style="fill:#6c0d15; stroke:none;" d="M30 85L31 86L30 85M41 85L42 86L41 85M82.3333 85.6667L82.6667 86.3333L82.3333 85.6667z"/>
<path style="fill:#a7151d; stroke:none;" d="M171 85L172 86L171 85z"/>
<path style="fill:#6c0d15; stroke:none;" d="M182.333 85.6667L182.667 86.3333L182.333 85.6667z"/>
<path style="fill:#a7151d; stroke:none;" d="M187 85L188 86L187 85M194 85L195 86L194 85z"/>
<path style="fill:#2d2123; stroke:none;" d="M199 85L200 86L199 85z"/>
<path style="fill:#6c0d15; stroke:none;" d="M232 85L232 88L233 88L232 85M285 85L286 86L285 85M324 85L325 86L324 85z"/>
<path style="fill:#a7151d; stroke:none;" d="M379 85L379 88L380 88L379 85z"/>
<path style="fill:#6c0d15; stroke:none;" d="M31 86L32 87L31 86M43.6667 86.3333L44.3333 86.6667L43.6667 86.3333z"/>
<path style="fill:#a7151d; stroke:none;" d="M166 86L167 87L166 86z"/>
<path style="fill:#6c0d15; stroke:none;" d="M187 86L188 87L187 86z"/>
<path style="fill:#a7151d; stroke:none;" d="M199 86L200 87L199 86z"/>
<path style="fill:#6c0d15; stroke:none;" d="M215.333 86.6667L215.667 87.3333L215.333 86.6667M263 86L263 91L264 91L263 86z"/>
<path style="fill:#2d2123; stroke:none;" d="M285 86L286 87L285 86M324 86L325 87L324 86M342 86L342 91L343 91L342 86z"/>
<path style="fill:#6c0d15; stroke:none;" d="M33 87L34 88L33 87M46 87L47 88L46 87z"/>
<path style="fill:#2d2123; stroke:none;" d="M83 87L84 88L83 87M166 87L167 88L166 87M172 87L173 88L172 87z"/>
<path style="fill:#a7151d; stroke:none;" d="M209.333 87.6667L209.667 88.3333L209.333 87.6667z"/>
<path style="fill:#2d2123; stroke:none;" d="M226 87L226 90L227 90L226 87M325 87L326 88L325 87M348 87L348 90L349 90L348 87z"/>
<path style="fill:#6c0d15; stroke:none;" d="M35 88L36 89L35 88M48 88L49 89L48 88M71 88L71 89L76 89L71 88z"/>
<path style="fill:#a7151d; stroke:none;" d="M76 88L77 89L76 88M83 88L84 89L83 88M172 88L173 89L172 88M181.333 88.6667L181.667 89.3333L181.333 88.6667M186 88L187 89L186 88M195 88L196 89L195 88z"/>
<path style="fill:#2d2123; stroke:none;" d="M200 88L201 89L200 88M232 88L233 89L232 88M269 88L270 89L269 88z"/>
<path style="fill:#a7151d; stroke:none;" d="M312 88L313 89L312 88z"/>
<path style="fill:#6c0d15; stroke:none;" d="M313 88L313 89L318 89L313 88z"/>
<path style="fill:#a7151d; stroke:none;" d="M318 88L319 89L318 88M325 88L326 89L325 88z"/>
<path style="fill:#6c0d15; stroke:none;" d="M379.333 88.6667L379.667 89.3333L379.333 88.6667M37 89L38 90L37 89z"/>
<path style="fill:#a7151d; stroke:none;" d="M49 89L50 90L49 89z"/>
<path style="fill:#2d2123; stroke:none;" d="M50 89L51 90L50 89z"/>
<path style="fill:#a7151d; stroke:none;" d="M70 89L70 108L71 108L70 89M78 89L79 90L78 89z"/>
<path style="fill:#6c0d15; stroke:none;" d="M84 89L85 90L84 89z"/>
<path style="fill:#a7151d; stroke:none;" d="M167 89L168 90L167 89z"/>
<path style="fill:#6c0d15; stroke:none;" d="M186 89L187 90L186 89M195.333 89.6667L195.667 90.3333L195.333 89.6667z"/>
<path style="fill:#a7151d; stroke:none;" d="M200 89L201 90L200 89z"/>
<path style="fill:#6c0d15; stroke:none;" d="M214.333 89.6667L214.667 90.3333L214.333 89.6667M232.333 89.6667L232.667 90.3333L232.333 89.6667M312 89L312 108L307 108L307 109C315.235 108.358 314.565 95.1137 312 89M319 89L320 90L319 89z"/>
<path style="fill:#2d2123; stroke:none;" d="M326 89L327 90L326 89z"/>
<path style="fill:#6c0d15; stroke:none;" d="M39.6667 90.3333L40.3333 90.6667L39.6667 90.3333M51 90L52 91L51 90z"/>
<path style="fill:#2d2123; stroke:none;" d="M78 90L79 91L78 90M85 90L86 91L85 90M167 90L168 91L167 90M173 90L174 91L173 90z"/>
<path style="fill:#6c0d15; stroke:none;" d="M208.333 90.6667L208.667 91.3333L208.333 90.6667z"/>
<path style="fill:#a7151d; stroke:none;" d="M284 90L284 108L285 108L284 90z"/>
<path style="fill:#2d2123; stroke:none;" d="M320 90L321 91L320 90z"/>
<path style="fill:#a7151d; stroke:none;" d="M326 90L327 91L326 90z"/>
<path style="fill:#6c0d15; stroke:none;" d="M348.333 90.6667L348.667 91.3333L348.333 90.6667z"/>
<path style="fill:#a7151d; stroke:none;" d="M379.333 90.6667L379.667 91.3333L379.333 90.6667M384.333 90.6667L384.667 91.3333L384.333 90.6667z"/>
<path style="fill:#2d2123; stroke:none;" d="M423 90L424 91L423 90z"/>
<path style="fill:#6c0d15; stroke:none;" d="M42 91L43 92L42 91M52 91L53 92L52 91M79 91L80 92L79 91z"/>
<path style="fill:#a7151d; stroke:none;" d="M85 91L86 92L85 91M173 91L174 92L173 91M180 91L181 92L180 91z"/>
<path style="fill:#6c0d15; stroke:none;" d="M185 91L186 92L185 91z"/>
<path style="fill:#a7151d; stroke:none;" d="M196 91L197 92L196 91z"/>
<path style="fill:#2d2123; stroke:none;" d="M201 91L202 92L201 91z"/>
<path style="fill:#a7151d; stroke:none;" d="M232.333 91.6667L232.667 92.3333L232.333 91.6667M263 91L264 92L263 91M268.333 91.6667L268.667 92.3333L268.333 91.6667M321 91L322 92L321 91z"/>
<path style="fill:#2d2123; stroke:none;" d="M327 91L328 92L327 91z"/>
<path style="fill:#6c0d15; stroke:none;" d="M423.333 91.6667L423.667 92.3333L423.333 91.6667M44 92L45 93L44 92M53 92L54 93L53 92z"/>
<path style="fill:#2d2123; stroke:none;" d="M86 92L87 93L86 92z"/>
<path style="fill:#a7151d; stroke:none;" d="M168 92L169 93L168 92z"/>
<path style="fill:#6c0d15; stroke:none;" d="M180 92L181 93L180 92z"/>
<path style="fill:#a7151d; stroke:none;" d="M185 92L186 93L185 92M201 92L202 93L201 92z"/>
<path style="fill:#6c0d15; stroke:none;" d="M213.333 92.6667L213.667 93.3333L213.333 92.6667z"/>
<path style="fill:#a7151d; stroke:none;" d="M227.333 92.6667L227.667 93.3333L227.333 92.6667z"/>
<path style="fill:#2d2123; stroke:none;" d="M321 92L322 93L321 92z"/>
<path style="fill:#a7151d; stroke:none;" d="M348 92L349 93L348 92z"/>
<path style="fill:#6c0d15; stroke:none;" d="M384.333 92.6667L384.667 93.3333L384.333 92.6667M46 93L47 94L46 93z"/>
<path style="fill:#2d2123; stroke:none;" d="M54 93L55 94L54 93z"/>
<path style="fill:#6c0d15; stroke:none;" d="M80 93L81 94L80 93z"/>
<path style="fill:#a7151d; stroke:none;" d="M86 93L87 94L86 93z"/>
<path style="fill:#2d2123; stroke:none;" d="M174 93L175 94L174 93z"/>
<path style="fill:#6c0d15; stroke:none;" d="M207.333 93.6667L207.667 94.3333L207.333 93.6667z"/>
<path style="fill:#2d2123; stroke:none;" d="M233.333 93.6667L233.667 94.3333L233.333 93.6667M262 93L263 94L262 93z"/>
<path style="fill:#6c0d15; stroke:none;" d="M268 93L269 94L268 93z"/>
<path style="fill:#a7151d; stroke:none;" d="M322 93L323 94L322 93z"/>
<path style="fill:#6c0d15; stroke:none;" d="M328 93L329 94L328 93z"/>
<path style="fill:#a7151d; stroke:none;" d="M343 93L344 94L343 93z"/>
<path style="fill:#6c0d15; stroke:none;" d="M378.333 93.6667L378.667 94.3333L378.333 93.6667M47 94L48 95L47 94z"/>
<path style="fill:#a7151d; stroke:none;" d="M54.3333 94.6667L54.6667 95.3333L54.3333 94.6667M81 94L82 95L81 94z"/>
<path style="fill:#2d2123; stroke:none;" d="M87 94L88 95L87 94z"/>
<path style="fill:#010101; stroke:none;" d="M168.333 94.6667L168.667 95.3333L168.333 94.6667z"/>
<path style="fill:#a7151d; stroke:none;" d="M174.333 94.6667L174.667 95.3333L174.333 94.6667z"/>
<path style="fill:#2d2123; stroke:none;" d="M179 94L180 95L179 94z"/>
<path style="fill:#a7151d; stroke:none;" d="M184 94L185 95L184 94M197 94L198 95L197 94z"/>
<path style="fill:#2d2123; stroke:none;" d="M202 94L203 95L202 94M227 94L228 95L227 94z"/>
<path style="fill:#6c0d15; stroke:none;" d="M262 94L263 95L262 94z"/>
<path style="fill:#2d2123; stroke:none;" d="M268 94L269 95L268 94M322 94L323 95L322 94M329 94L330 95L329 94M343.333 94.6667L343.667 95.3333L343.333 94.6667M349 94L350 95L349 94M422 94L423 95L422 94z"/>
<path style="fill:#6c0d15; stroke:none;" d="M48 95L49 96L48 95z"/>
<path style="fill:#2d2123; stroke:none;" d="M81 95L82 96L81 95z"/>
<path style="fill:#a7151d; stroke:none;" d="M87 95L88 96L87 95M169 95L170 96L169 95z"/>
<path style="fill:#6c0d15; stroke:none;" d="M179 95L180 96L179 95M184 95L185 96L184 95z"/>
<path style="fill:#2d2123; stroke:none;" d="M197 95L198 96L197 95z"/>
<path style="fill:#a7151d; stroke:none;" d="M202 95L203 96L202 95z"/>
<path style="fill:#6c0d15; stroke:none;" d="M212.333 95.6667L212.667 96.3333L212.333 95.6667z"/>
<path style="fill:#a7151d; stroke:none;" d="M233 95L234 96L233 95M323 95L324 96L323 95M329 95L330 96L329 95M349 95L350 96L349 95M383 95L384 96L383 95M400 95L400 98L401 98L400 95z"/>
<path style="fill:#6c0d15; stroke:none;" d="M422 95L423 96L422 95M449 95L450 96L449 95z"/>
<path style="fill:#a7151d; stroke:none;" d="M49 96L50 97L49 96z"/>
<path style="fill:#2d2123; stroke:none;" d="M55 96L55 100L56 100L55 96z"/>
<path style="fill:#a7151d; stroke:none;" d="M82 96L83 97L82 96z"/>
<path style="fill:#6c0d15; stroke:none;" d="M88 96L89 97L88 96z"/>
<path style="fill:#2d2123; stroke:none;" d="M175 96L176 97L175 96z"/>
<path style="fill:#010101; stroke:none;" d="M184 96L185 97L184 96z"/>
<path style="fill:#6c0d15; stroke:none;" d="M206.333 96.6667L206.667 97.3333L206.333 96.6667z"/>
<path style="fill:#a7151d; stroke:none;" d="M228 96L229 97L228 96z"/>
<path style="fill:#6c0d15; stroke:none;" d="M234 96L235 97L234 96M261 96L262 97L261 96M267 96L268 97L267 96z"/>
<path style="fill:#2d2123; stroke:none;" d="M330 96L331 97L330 96z"/>
<path style="fill:#a7151d; stroke:none;" d="M344 96L345 97L344 96z"/>
<path style="fill:#2d2123; stroke:none;" d="M350 96L351 97L350 96z"/>
<path style="fill:#6c0d15; stroke:none;" d="M377 96L378 97L377 96M383 96L384 97L383 96z"/>
<path style="fill:#a7151d; stroke:none;" d="M395 96L395 99L396 99L395 96M449.333 96.6667L449.667 97.3333L449.333 96.6667z"/>
<path style="fill:#2d2123; stroke:none;" d="M49.3333 97.6667L49.6667 98.3333L49.3333 97.6667M82 97L83 98L82 97z"/>
<path style="fill:#a7151d; stroke:none;" d="M175.333 97.6667L175.667 98.3333L175.333 97.6667z"/>
<path style="fill:#2d2123; stroke:none;" d="M178 97L176 101L177 101L178 97z"/>
<path style="fill:#6c0d15; stroke:none;" d="M183.333 97.6667L183.667 98.3333L183.333 97.6667z"/>
<path style="fill:#a7151d; stroke:none;" d="M198 97L199 98L198 97z"/>
<path style="fill:#2d2123; stroke:none;" d="M203 97L204 98L203 97M228 97L229 98L228 97z"/>
<path style="fill:#6c0d15; stroke:none;" d="M324 97L325 98L324 97z"/>
<path style="fill:#a7151d; stroke:none;" d="M330 97L331 98L330 97z"/>
<path style="fill:#2d2123; stroke:none;" d="M344 97L345 98L344 97z"/>
<path style="fill:#a7151d; stroke:none;" d="M350 97L351 98L350 97z"/>
<path style="fill:#2d2123; stroke:none;" d="M376 97L377 98L376 97z"/>
<path style="fill:#6c0d15; stroke:none;" d="M421 97L422 98L421 97z"/>
<path style="fill:#a7151d; stroke:none;" d="M444.333 97.6667L444.667 98.3333L444.333 97.6667M83 98L84 99L83 98z"/>
<path style="fill:#6c0d15; stroke:none;" d="M89 98L90 99L89 98z"/>
<path style="fill:#a7151d; stroke:none;" d="M170 98L171 99L170 98z"/>
<path style="fill:#6c0d15; stroke:none;" d="M178 98L179 99L178 98z"/>
<path style="fill:#2d2123; stroke:none;" d="M198 98L199 99L198 98z"/>
<path style="fill:#a7151d; stroke:none;" d="M203.333 98.6667L203.667 99.3333L203.333 98.6667z"/>
<path style="fill:#6c0d15; stroke:none;" d="M211 98L212 99L211 98z"/>
<path style="fill:#a7151d; stroke:none;" d="M229 98L230 99L229 98M235 98L236 99L235 98M260 98L261 99L260 98z"/>
<path style="fill:#6c0d15; stroke:none;" d="M266 98L267 99L266 98z"/>
<path style="fill:#a7151d; stroke:none;" d="M325 98L326 99L325 98z"/>
<path style="fill:#2d2123; stroke:none;" d="M331 98L332 99L331 98z"/>
<path style="fill:#a7151d; stroke:none;" d="M345 98L346 99L345 98z"/>
<path style="fill:#6c0d15; stroke:none;" d="M351 98L352 99L351 98M382 98L383 99L382 98M420 98L421 99L420 98z"/>
<path style="fill:#2d2123; stroke:none;" d="M450 98L451 99L450 98z"/>
<path style="fill:#6c0d15; stroke:none;" d="M28.6667 99.3333L29.3333 99.6667L28.6667 99.3333M49.3333 99.6667L49.6667 100.333L49.3333 99.6667z"/>
<path style="fill:#2d2123; stroke:none;" d="M83 99L84 100L83 99M90 99L91 100L90 99M205 99L204 101L205 99M211 99L212 100L211 99M229 99L230 100L229 99z"/>
<path style="fill:#6c0d15; stroke:none;" d="M236 99L237 100L236 99M259 99L260 100L259 99z"/>
<path style="fill:#2d2123; stroke:none;" d="M325 99L326 100L325 99z"/>
<path style="fill:#a7151d; stroke:none;" d="M331 99L332 100L331 99z"/>
<path style="fill:#2d2123; stroke:none;" d="M345 99L346 100L345 99z"/>
<path style="fill:#6c0d15; stroke:none;" d="M352 99L353 100L352 99M375 99L376 100L375 99z"/>
<path style="fill:#2d2123; stroke:none;" d="M395.333 99.6667L395.667 100.333L395.333 99.6667M401 99L402 100L401 99M419 99L420 100L419 99z"/>
<path style="fill:#a7151d; stroke:none;" d="M424 99L424 106L425 106L424 99z"/>
<path style="fill:#2d2123; stroke:none;" d="M444 99L445 100L444 99z"/>
<path style="fill:#6c0d15; stroke:none;" d="M450 99L451 100L450 99M27 100L28 101L27 100M30 100L31 101L30 100M84 100L85 101L84 100z"/>
<path style="fill:#a7151d; stroke:none;" d="M90 100L91 101L90 100z"/>
<path style="fill:#6c0d15; stroke:none;" d="M177 100L178 101L177 100M182.333 100.667L182.667 101.333L182.333 100.667z"/>
<path style="fill:#a7151d; stroke:none;" d="M199 100L200 101L199 100z"/>
<path style="fill:#6c0d15; stroke:none;" d="M205 100L204 102L205 100M230 100L231 101L230 100M237 100L238 101L237 100M258 100L259 101L258 100M265 100L266 101L265 100z"/>
<path style="fill:#a7151d; stroke:none;" d="M326 100L327 101L326 100z"/>
<path style="fill:#6c0d15; stroke:none;" d="M332 100L333 101L332 100M346 100L347 101L346 100M353 100L354 101L353 100M374 100L375 101L374 100M381 100L382 101L381 100z"/>
<path style="fill:#a7151d; stroke:none;" d="M401 100L402 101L401 100z"/>
<path style="fill:#2d2123; stroke:none;" d="M418 100L419 101L418 100z"/>
<path style="fill:#6c0d15; stroke:none;" d="M423 100L424 101L423 100z"/>
<path style="fill:#2d2123; stroke:none;" d="M451 100L452 101L451 100z"/>
<path style="fill:#6c0d15; stroke:none;" d="M26 101L27 102L26 101M31 101L32 102L31 101z"/>
<path style="fill:#2d2123; stroke:none;" d="M48 101L49 102L48 101z"/>
<path style="fill:#6c0d15; stroke:none;" d="M54.3333 101.667L54.6667 102.333L54.3333 101.667z"/>
<path style="fill:#2d2123; stroke:none;" d="M91 101L92 102L91 101z"/>
<path style="fill:#a7151d; stroke:none;" d="M171 101L172 102L171 101M176 101L178 103L178 101L176 101z"/>
<path style="fill:#2d2123; stroke:none;" d="M199 101L200 102L199 101z"/>
<path style="fill:#a7151d; stroke:none;" d="M205 101L206 102L205 101z"/>
<path style="fill:#6c0d15; stroke:none;" d="M210 101L211 102L210 101z"/>
<path style="fill:#a7151d; stroke:none;" d="M231 101L232 102L231 101z"/>
<path style="fill:#6c0d15; stroke:none;" d="M238 101L239 102L238 101z"/>
<path style="fill:#a7151d; stroke:none;" d="M257 101L258 102L257 101z"/>
<path style="fill:#6c0d15; stroke:none;" d="M264 101L265 102L264 101z"/>
<path style="fill:#2d2123; stroke:none;" d="M326 101L327 102L326 101z"/>
<path style="fill:#a7151d; stroke:none;" d="M347 101L348 102L347 101z"/>
<path style="fill:#6c0d15; stroke:none;" d="M354 101L355 102L354 101z"/>
<path style="fill:#a7151d; stroke:none;" d="M373 101L374 102L373 101z"/>
<path style="fill:#6c0d15; stroke:none;" d="M380 101L381 102L380 101M402 101L403 102L402 101z"/>
<path style="fill:#2d2123; stroke:none;" d="M417 101L418 102L417 101z"/>
<path style="fill:#a7151d; stroke:none;" d="M445 101L446 102L445 101M451 101L452 102L451 101z"/>
<path style="fill:#6c0d15; stroke:none;" d="M33 102L34 103L33 102z"/>
<path style="fill:#2d2123; stroke:none;" d="M47 102L48 103L47 102z"/>
<path style="fill:#6c0d15; stroke:none;" d="M85 102L86 103L85 102z"/>
<path style="fill:#a7151d; stroke:none;" d="M91 102L92 103L91 102M150.333 102.667L150.667 103.333L150.333 102.667M204 102L205 103L204 102z"/>
<path style="fill:#2d2123; stroke:none;" d="M210 102L211 103L210 102z"/>
<path style="fill:#a7151d; stroke:none;" d="M232 102L233 103L232 102z"/>
<path style="fill:#6c0d15; stroke:none;" d="M240 102L241 103L240 102z"/>
<path style="fill:#2d2123; stroke:none;" d="M255 102L256 103L255 102z"/>
<path style="fill:#a7151d; stroke:none;" d="M256 102L257 103L256 102M263 102L264 103L263 102M327 102L328 103L327 102z"/>
<path style="fill:#6c0d15; stroke:none;" d="M333 102L334 103L333 102z"/>
<path style="fill:#a7151d; stroke:none;" d="M355 102L356 103L355 102z"/>
<path style="fill:#6c0d15; stroke:none;" d="M356 102L357 103L356 102M371 102L372 103L371 102M379 102L380 103L379 102z"/>
<path style="fill:#a7151d; stroke:none;" d="M396 102L397 103L396 102z"/>
<path style="fill:#6c0d15; stroke:none;" d="M403 102L404 103L403 102z"/>
<path style="fill:#a7151d; stroke:none;" d="M416 102L417 103L416 102z"/>
<path style="fill:#6c0d15; stroke:none;" d="M422 102L423 103L422 102z"/>
<path style="fill:#a7151d; stroke:none;" d="M429 102L430 103L429 102z"/>
<path style="fill:#2d2123; stroke:none;" d="M445 102L446 103L445 102z"/>
<path style="fill:#a7151d; stroke:none;" d="M452 102L453 103L452 102z"/>
<path style="fill:#6c0d15; stroke:none;" d="M453 102L454 103L453 102M26 103L27 104L26 103M34.6667 103.333L35.3333 103.667L34.6667 103.333z"/>
<path style="fill:#2d2123; stroke:none;" d="M46 103L47 104L46 103z"/>
<path style="fill:#a7151d; stroke:none;" d="M53 103L54 104L53 103M86 103L87 104L86 103z"/>
<path style="fill:#6c0d15; stroke:none;" d="M92.6667 103.333L93.3333 103.667L92.6667 103.333z"/>
<path style="fill:#2d2123; stroke:none;" d="M94 103L95 104L94 103z"/>
<path style="fill:#a7151d; stroke:none;" d="M111 103L112 104L111 103z"/>
<path style="fill:#6c0d15; stroke:none;" d="M112 103L113 104L112 103M131 103L132 104L131 103M151 103L152 104L151 103M181.333 103.667L181.667 104.333L181.333 103.667z"/>
<path style="fill:#a7151d; stroke:none;" d="M200 103L201 104L200 103z"/>
<path style="fill:#2d2123; stroke:none;" d="M232 103L233 104L232 103z"/>
<path style="fill:#6c0d15; stroke:none;" d="M241.667 103.333L242.333 103.667L241.667 103.333z"/>
<path style="fill:#2d2123; stroke:none;" d="M253 103L254 104L253 103z"/>
<path style="fill:#a7151d; stroke:none;" d="M254 103L255 104L254 103M262 103L263 104L262 103z"/>
<path style="fill:#2d2123; stroke:none;" d="M327 103L328 104L327 103z"/>
<path style="fill:#6c0d15; stroke:none;" d="M334 103L335 104L334 103z"/>
<path style="fill:#2d2123; stroke:none;" d="M335.667 103.333L336.333 103.667L335.667 103.333M348 103L349 104L348 103z"/>
<path style="fill:#6c0d15; stroke:none;" d="M357.667 103.333L358.333 103.667L357.667 103.333z"/>
<path style="fill:#2d2123; stroke:none;" d="M368.667 103.333L369.333 103.667L368.667 103.333z"/>
<path style="fill:#a7151d; stroke:none;" d="M370 103L371 104L370 103M378 103L379 104L378 103z"/>
<path style="fill:#2d2123; stroke:none;" d="M396 103L397 104L396 103z"/>
<path style="fill:#6c0d15; stroke:none;" d="M404 103L405 104L404 103z"/>
<path style="fill:#2d2123; stroke:none;" d="M405 103L406 104L405 103M413 103L414 104L413 103z"/>
<path style="fill:#a7151d; stroke:none;" d="M414 103L415 104L414 103z"/>
<path style="fill:#6c0d15; stroke:none;" d="M421 103L422 104L421 103M430 103L431 104L430 103z"/>
<path style="fill:#a7151d; stroke:none;" d="M446 103L447 104L446 103z"/>
<path style="fill:#6c0d15; stroke:none;" d="M454.667 103.333L455.333 103.667L454.667 103.333M27 104L28 105L27 104M37.6667 104.333L38.3333 104.667L37.6667 104.333z"/>
<path style="fill:#2d2123; stroke:none;" d="M39 104L39 105L44 105L39 104z"/>
<path style="fill:#a7151d; stroke:none;" d="M44 104L45 105L44 104z"/>
<path style="fill:#2d2123; stroke:none;" d="M53 104L54 105L53 104M86 104L87 105L86 104z"/>
<path style="fill:#6c0d15; stroke:none;" d="M97 104L97 108L91 108L91 109C94.5947 108.882 98.4392 108.392 97 104M116 104L116 108L108 108L108 109C111.758 108.987 117.733 109.289 116 104M155 104L155 108L148 108L148 109C151.689 108.956 156.592 108.859 155 104z"/>
<path style="fill:#a7151d; stroke:none;" d="M172 104L173 105L172 104z"/>
<path style="fill:#2d2123; stroke:none;" d="M200 104L201 105L200 104z"/>
<path style="fill:#6c0d15; stroke:none;" d="M209 104L210 105L209 104M234 104L235 105L234 104M244 104L244 105L248 105L244 104z"/>
<path style="fill:#2d2123; stroke:none;" d="M248 104L249 105L248 104z"/>
<path style="fill:#6c0d15; stroke:none;" d="M249.667 104.333L250.333 104.667L249.667 104.333z"/>
<path style="fill:#a7151d; stroke:none;" d="M251 104L252 105L251 104M261 104L262 105L261 104z"/>
<path style="fill:#6c0d15; stroke:none;" d="M328 104L329 105L328 104z"/>
<path style="fill:#2d2123; stroke:none;" d="M339 104L339 108L340 108L339 104z"/>
<path style="fill:#a7151d; stroke:none;" d="M350 104L351 105L350 104z"/>
<path style="fill:#6c0d15; stroke:none;" d="M360 104L360 105L364 105L360 104z"/>
<path style="fill:#2d2123; stroke:none;" d="M364 104L365 105L364 104z"/>
<path style="fill:#6c0d15; stroke:none;" d="M365.667 104.333L366.333 104.667L365.667 104.333z"/>
<path style="fill:#a7151d; stroke:none;" d="M367 104L368 105L367 104z"/>
<path style="fill:#6c0d15; stroke:none;" d="M377 104L378 105L377 104M397 104L398 105L397 104z"/>
<path style="fill:#a7151d; stroke:none;" d="M407 104L408 105L407 104z"/>
<path style="fill:#6c0d15; stroke:none;" d="M408.667 104.333L409.333 104.667L408.667 104.333z"/>
<path style="fill:#a7151d; stroke:none;" d="M410.667 104.333L411.333 104.667L410.667 104.333z"/>
<path style="fill:#6c0d15; stroke:none;" d="M420 104L421 105L420 104M434 104L434 108L427 108L427 109C430.689 108.956 435.592 108.859 434 104z"/>
<path style="fill:#2d2123; stroke:none;" d="M460 104L460 109L461 109L460 104M28 105L29 106L28 105z"/>
<path style="fill:#6c0d15; stroke:none;" d="M52 105L53 106L52 105z"/>
<path style="fill:#a7151d; stroke:none;" d="M87 105L88 106L87 105z"/>
<path style="fill:#2d2123; stroke:none;" d="M125 105L126 106L125 105z"/>
<path style="fill:#a7151d; stroke:none;" d="M145 105L146 106L145 105z"/>
<path style="fill:#2d2123; stroke:none;" d="M209 105L210 106L209 105z"/>
<path style="fill:#6c0d15; stroke:none;" d="M235 105L236 106L235 105M260 105L261 106L260 105M351 105L352 106L351 105M376 105L377 106L376 105z"/>
<path style="fill:#a7151d; stroke:none;" d="M398 105L399 106L398 105z"/>
<path style="fill:#6c0d15; stroke:none;" d="M419 105L420 106L419 105z"/>
<path style="fill:#a7151d; stroke:none;" d="M448 105L449 106L448 105z"/>
<path style="fill:#6c0d15; stroke:none;" d="M30 106L31 107L30 106z"/>
<path style="fill:#2d2123; stroke:none;" d="M51 106L52 107L51 106M87 106L88 107L87 106z"/>
<path style="fill:#6c0d15; stroke:none;" d="M106 106L107 107L106 106M145 106L146 107L145 106z"/>
<path style="fill:#a7151d; stroke:none;" d="M173.333 106.667L173.667 107.333L173.333 106.667z"/>
<path style="fill:#6c0d15; stroke:none;" d="M180.333 106.667L180.667 107.333L180.333 106.667z"/>
<path style="fill:#a7151d; stroke:none;" d="M201 106L202 107L201 106z"/>
<path style="fill:#6c0d15; stroke:none;" d="M236.667 106.333L237.333 106.667L236.667 106.333z"/>
<path style="fill:#a7151d; stroke:none;" d="M258 106L259 107L258 106z"/>
<path style="fill:#2d2123; stroke:none;" d="M259 106L260 107L259 106M329 106L330 107L329 106z"/>
<path style="fill:#6c0d15; stroke:none;" d="M352 106L353 107L352 106z"/>
<path style="fill:#a7151d; stroke:none;" d="M374 106L375 107L374 106z"/>
<path style="fill:#2d2123; stroke:none;" d="M375 106L376 107L375 106z"/>
<path style="fill:#a7151d; stroke:none;" d="M399 106L400 107L399 106z"/>
<path style="fill:#2d2123; stroke:none;" d="M418 106L419 107L418 106M424 106L425 107L424 106z"/>
<path style="fill:#6c0d15; stroke:none;" d="M449 106L450 107L449 106z"/>
<path style="fill:#2d2123; stroke:none;" d="M31 107L32 108L31 107z"/>
<path style="fill:#6c0d15; stroke:none;" d="M32 107L33 108L32 107M49 107L50 108L49 107z"/>
<path style="fill:#2d2123; stroke:none;" d="M88 107L89 108L88 107z"/>
<path style="fill:#6c0d15; stroke:none;" d="M107 107L108 108L107 107M126 107L127 108L126 107M146 107L147 108L146 107z"/>
<path style="fill:#2d2123; stroke:none;" d="M201 107L202 108L201 107z"/>
<path style="fill:#6c0d15; stroke:none;" d="M208 107L209 108L208 107M238 107L239 108L238 107z"/>
<path style="fill:#a7151d; stroke:none;" d="M256 107L257 108L256 107z"/>
<path style="fill:#2d2123; stroke:none;" d="M257 107L258 108L257 107z"/>
<path style="fill:#6c0d15; stroke:none;" d="M330 107L331 108L330 107M354 107L355 108L354 107z"/>
<path style="fill:#a7151d; stroke:none;" d="M372 107L373 108L372 107z"/>
<path style="fill:#2d2123; stroke:none;" d="M373 107L374 108L373 107z"/>
<path style="fill:#6c0d15; stroke:none;" d="M400 107L401 108L400 107z"/>
<path style="fill:#a7151d; stroke:none;" d="M416 107L417 108L416 107z"/>
<path style="fill:#6c0d15; stroke:none;" d="M425 107L426 108L425 107M450.667 107.333L451.333 107.667L450.667 107.333M34 108L35 109L34 108z"/>
<path style="fill:#a7151d; stroke:none;" d="M35 108L36 109L35 108M46 108L47 109L46 108z"/>
<path style="fill:#6c0d15; stroke:none;" d="M47 108L48 109L47 108z"/>
<path style="fill:#2d2123; stroke:none;" d="M65 108L66 109L65 108M70 108L71 109L70 108M90 108L91 109L90 108M97 108L98 109L97 108M116 108L117 109L116 108z"/>
<path style="fill:#6c0d15; stroke:none;" d="M128 108L128 109L136 109L128 108z"/>
<path style="fill:#2d2123; stroke:none;" d="M147 108L148 109L147 108M155 108L156 109L155 108z"/>
<path style="fill:#6c0d15; stroke:none;" d="M174 108L174 109L180 109L174 108M202 108L202 109L208 109L202 108z"/>
<path style="fill:#2d2123; stroke:none;" d="M240 108L241 109L240 108z"/>
<path style="fill:#6c0d15; stroke:none;" d="M241 108L242 109L241 108z"/>
<path style="fill:#a7151d; stroke:none;" d="M242 108L243 109L242 108M253 108L254 109L253 108z"/>
<path style="fill:#2d2123; stroke:none;" d="M254.667 108.333L255.333 108.667L254.667 108.333z"/>
<path style="fill:#6c0d15; stroke:none;" d="M279 108L279 109L284 109L279 108z"/>
<path style="fill:#2d2123; stroke:none;" d="M284 108L285 109L284 108M312 108L313 109L312 108z"/>
<path style="fill:#6c0d15; stroke:none;" d="M332 108L332 109L339 109L332 108z"/>
<path style="fill:#2d2123; stroke:none;" d="M356 108L357 109L356 108z"/>
<path style="fill:#6c0d15; stroke:none;" d="M357 108L358 109L357 108z"/>
<path style="fill:#a7151d; stroke:none;" d="M358 108L359 109L358 108M369 108L370 109L369 108z"/>
<path style="fill:#2d2123; stroke:none;" d="M370.667 108.333L371.333 108.667L370.667 108.333z"/>
<path style="fill:#6c0d15; stroke:none;" d="M402 108L403 109L402 108z"/>
<path style="fill:#a7151d; stroke:none;" d="M413 108L414 109L413 108z"/>
<path style="fill:#6c0d15; stroke:none;" d="M414 108L415 109L414 108z"/>
<path style="fill:#2d2123; stroke:none;" d="M415 108L416 109L415 108M434 108L435 109L434 108z"/>
<path style="fill:#6c0d15; stroke:none;" d="M453.667 108.333L454.333 108.667L453.667 108.333z"/>
<path style="fill:#a7151d; stroke:none;" d="M455 108L456 109L455 108M459 108L460 109L459 108z"/>
<path style="fill:#2d2123; stroke:none;" d="M37 109L38 110L37 109z"/>
<path style="fill:#6c0d15; stroke:none;" d="M38 109L38 110L44 110L38 109z"/>
<path style="fill:#2d2123; stroke:none;" d="M44 109L45 110L44 109M244.667 109.333L245.333 109.667L244.667 109.333z"/>
<path style="fill:#6c0d15; stroke:none;" d="M246 109L246 110L250 110L246 109z"/>
<path style="fill:#2d2123; stroke:none;" d="M250.667 109.333L251.333 109.667L250.667 109.333M360 109L361 110L360 109z"/>
<path style="fill:#6c0d15; stroke:none;" d="M361 109L361 110L366 110L361 109z"/>
<path style="fill:#2d2123; stroke:none;" d="M366.667 109.333L367.333 109.667L366.667 109.333z"/>
<path style="fill:#6c0d15; stroke:none;" d="M405 109L405 110L410 110L405 109z"/>
<path style="fill:#2d2123; stroke:none;" d="M410.667 109.333L411.333 109.667L410.667 109.333M410 143C400.323 134.79 384.321 143.708 393.009 155.671C401.82 167.802 414.053 154.123 410 143C427.434 156.254 455.468 139.867 440.197 119.043C431.797 107.59 413.381 110.523 407.754 123.001C404.599 129.996 407.099 136.468 410 143z"/>
<path style="fill:#6c0d15; stroke:none;" d="M240 115L241 116L240 115z"/>
<path style="fill:#a7151d; stroke:none;" d="M241 115L241 116L245 116L245 137C247.357 131.382 248.384 116.232 241 115z"/>
<path style="fill:#6c0d15; stroke:none;" d="M245 115L246 116L245 115z"/>
<path style="fill:#010101; stroke:none;" d="M425 115L429 120C429.138 116.558 428.402 115.593 425 115z"/>
<path style="fill:#a7151d; stroke:none;" d="M240 116L240 132L241 132L240 116z"/>
<path style="fill:#010101; stroke:none;" d="M429 122L436 134C440.663 129.222 435.131 121.092 429 122M414 123C415.293 131.564 422.156 133.685 427 140L433 137L433 135L414 123z"/>
<path style="fill:#2d2123; stroke:none;" d="M239 131L240 132L239 131M227.667 132.333L228.333 132.667L227.667 132.333z"/>
<path style="fill:#6c0d15; stroke:none;" d="M229 132L229 133L233 133L229 132z"/>
<path style="fill:#a7151d; stroke:none;" d="M233 132L233 133L236 133L233 132z"/>
<path style="fill:#2d2123; stroke:none;" d="M214 133L214 134L217 134L214 133z"/>
<path style="fill:#6c0d15; stroke:none;" d="M217 133L217 134L221 134L217 133z"/>
<path style="fill:#a7151d; stroke:none;" d="M221.667 133.333L222.333 133.667L221.667 133.333z"/>
<path style="fill:#2d2123; stroke:none;" d="M202 134L202 135L205 135L202 134z"/>
<path style="fill:#6c0d15; stroke:none;" d="M205 134L205 135L208 135L205 134z"/>
<path style="fill:#a7151d; stroke:none;" d="M208 134L208 135L211 135L208 134z"/>
<path style="fill:#2d2123; stroke:none;" d="M190.667 135.333L191.333 135.667L190.667 135.333z"/>
<path style="fill:#6c0d15; stroke:none;" d="M192 135L192 136L196 136L192 135z"/>
<path style="fill:#a7151d; stroke:none;" d="M196 135L196 136L199 136L196 135z"/>
<path style="fill:#2d2123; stroke:none;" d="M177 136L177 137L180 137L177 136z"/>
<path style="fill:#6c0d15; stroke:none;" d="M180 136L180 137L184 137L180 136z"/>
<path style="fill:#a7151d; stroke:none;" d="M184.667 136.333L185.333 136.667L184.667 136.333z"/>
<path style="fill:#2d2123; stroke:none;" d="M165 137L165 138L168 138L165 137z"/>
<path style="fill:#6c0d15; stroke:none;" d="M168 137L168 138L171 138L168 137z"/>
<path style="fill:#a7151d; stroke:none;" d="M171 137L171 138L174 138L171 137M236 137L236 138L239 138L236 137z"/>
<path style="fill:#6c0d15; stroke:none;" d="M239 137L239 138L243 138L239 137z"/>
<path style="fill:#2d2123; stroke:none;" d="M243.667 137.333L244.333 137.667L243.667 137.333M153.667 138.333L154.333 138.667L153.667 138.333z"/>
<path style="fill:#6c0d15; stroke:none;" d="M155 138L155 139L159 139L155 138z"/>
<path style="fill:#a7151d; stroke:none;" d="M159 138L159 139L162 139L159 138M224.667 138.333L225.333 138.667L224.667 138.333z"/>
<path style="fill:#6c0d15; stroke:none;" d="M226 138L226 139L230 139L226 138z"/>
<path style="fill:#2d2123; stroke:none;" d="M230 138L230 139L233 139L230 138M140 139L140 140L143 140L140 139z"/>
<path style="fill:#6c0d15; stroke:none;" d="M143 139L143 140L147 140L143 139z"/>
<path style="fill:#a7151d; stroke:none;" d="M147.667 139.333L148.333 139.667L147.667 139.333M211 139L211 140L214 140L211 139z"/>
<path style="fill:#6c0d15; stroke:none;" d="M214 139L214 140L218 140L214 139z"/>
<path style="fill:#2d2123; stroke:none;" d="M218.667 139.333L219.333 139.667L218.667 139.333M128.667 140.333L129.333 140.667L128.667 140.333z"/>
<path style="fill:#6c0d15; stroke:none;" d="M130 140L130 141L134 141L130 140z"/>
<path style="fill:#a7151d; stroke:none;" d="M134 140L134 141L137 141L134 140M199 140L199 141L202 141L199 140z"/>
<path style="fill:#6c0d15; stroke:none;" d="M202 140L202 141L205 141L202 140z"/>
<path style="fill:#2d2123; stroke:none;" d="M205 140L205 141L208 141L205 140M116.667 141.333L117.333 141.667L116.667 141.333z"/>
<path style="fill:#6c0d15; stroke:none;" d="M118 141L118 142L122 142L118 141z"/>
<path style="fill:#a7151d; stroke:none;" d="M122 141L122 142L125 142L122 141M187.667 141.333L188.333 141.667L187.667 141.333z"/>
<path style="fill:#6c0d15; stroke:none;" d="M189 141L189 142L193 142L189 141z"/>
<path style="fill:#2d2123; stroke:none;" d="M193 141L193 142L196 142L193 141M103 142L103 143L106 143L103 142z"/>
<path style="fill:#6c0d15; stroke:none;" d="M106 142L106 143L110 143L106 142z"/>
<path style="fill:#a7151d; stroke:none;" d="M110.667 142.333L111.333 142.667L110.667 142.333M174 142L174 143L177 143L174 142z"/>
<path style="fill:#6c0d15; stroke:none;" d="M177 142L177 143L181 143L177 142z"/>
<path style="fill:#2d2123; stroke:none;" d="M181.667 142.333L182.333 142.667L181.667 142.333M91.6667 143.333L92.3333 143.667L91.6667 143.333z"/>
<path style="fill:#6c0d15; stroke:none;" d="M93 143L93 144L97 144L93 143z"/>
<path style="fill:#a7151d; stroke:none;" d="M97 143L97 144L100 144L97 143M162 143L162 144L165 144L162 143z"/>
<path style="fill:#6c0d15; stroke:none;" d="M165 143L165 144L168 144L165 143z"/>
<path style="fill:#2d2123; stroke:none;" d="M168 143L168 144L171 144L168 143z"/>
<path style="fill:#010101; stroke:none;" d="M420 143L420 145L422 143L420 143z"/>
<path style="fill:#2d2123; stroke:none;" d="M78 144L78 145L81 145L78 144z"/>
<path style="fill:#6c0d15; stroke:none;" d="M81 144L81 145L85 145L81 144z"/>
<path style="fill:#a7151d; stroke:none;" d="M85.6667 144.333L86.3333 144.667L85.6667 144.333M150.667 144.333L151.333 144.667L150.667 144.333z"/>
<path style="fill:#6c0d15; stroke:none;" d="M152 144L152 145L156 145L152 144z"/>
<path style="fill:#2d2123; stroke:none;" d="M156 144L156 145L159 145L156 144z"/>
<path style="fill:#010101; stroke:none;" d="M398.448 145.072C394.058 147.847 399.229 155.938 403.685 153.688C408.754 151.127 403.265 142.027 398.448 145.072z"/>
<path style="fill:#2d2123; stroke:none;" d="M66 145L66 146L69 146L66 145z"/>
<path style="fill:#6c0d15; stroke:none;" d="M69 145L69 146L73 146L69 145z"/>
<path style="fill:#a7151d; stroke:none;" d="M73.6667 145.333L74.3333 145.667L73.6667 145.333M137 145L137 146L140 146L137 145z"/>
<path style="fill:#6c0d15; stroke:none;" d="M140 145L140 146L144 146L140 145z"/>
<path style="fill:#2d2123; stroke:none;" d="M144.667 145.333L145.333 145.667L144.667 145.333M54.6667 146.333L55.3333 146.667L54.6667 146.333z"/>
<path style="fill:#6c0d15; stroke:none;" d="M56 146L56 147L60 147L56 146z"/>
<path style="fill:#a7151d; stroke:none;" d="M60 146L60 147L63 147L60 146M125.667 146.333L126.333 146.667L125.667 146.333z"/>
<path style="fill:#6c0d15; stroke:none;" d="M127 146L127 147L131 147L127 146z"/>
<path style="fill:#2d2123; stroke:none;" d="M131 146L131 147L134 147L131 146M41 147L41 148L44 148L41 147z"/>
<path style="fill:#6c0d15; stroke:none;" d="M44 147L44 148L48 148L44 147z"/>
<path style="fill:#a7151d; stroke:none;" d="M48.6667 147.333L49.3333 147.667L48.6667 147.333M113.667 147.333L114.333 147.667L113.667 147.333z"/>
<path style="fill:#6c0d15; stroke:none;" d="M115 147L115 148L119 148L115 147z"/>
<path style="fill:#2d2123; stroke:none;" d="M119 147L119 148L122 148L119 147M29 148L29 149L32 149L29 148z"/>
<path style="fill:#6c0d15; stroke:none;" d="M32 148L32 149L35 149L32 148z"/>
<path style="fill:#a7151d; stroke:none;" d="M35 148L35 149L38 149L35 148M100 148L100 149L103 149L100 148z"/>
<path style="fill:#6c0d15; stroke:none;" d="M103 148L103 149L107 149L103 148z"/>
<path style="fill:#2d2123; stroke:none;" d="M107.667 148.333L108.333 148.667L107.667 148.333M373 161L379 161C382.575 154.37 388.978 160.929 395 161L387 148C380.394 150.173 374.311 153.823 373 161M17.6667 149.333L18.3333 149.667L17.6667 149.333z"/>
<path style="fill:#6c0d15; stroke:none;" d="M19 149L19 150L23 150L19 149z"/>
<path style="fill:#a7151d; stroke:none;" d="M23 149L23 150L26 150L23 149M88.6667 149.333L89.3333 149.667L88.6667 149.333z"/>
<path style="fill:#6c0d15; stroke:none;" d="M90 149L90 150L94 150L90 149z"/>
<path style="fill:#2d2123; stroke:none;" d="M94 149L94 150L97 150L94 149z"/>
<path style="fill:#a7151d; stroke:none;" d="M9 150L10 151L9 150M11.6667 150.333L12.3333 150.667L11.6667 150.333M75 150L75 151L78 151L75 150z"/>
<path style="fill:#6c0d15; stroke:none;" d="M78 150L78 151L82 151L78 150z"/>
<path style="fill:#2d2123; stroke:none;" d="M82.6667 150.333L83.3333 150.667L82.6667 150.333z"/>
<path style="fill:#a7151d; stroke:none;" d="M63 151L63 152L66 152L63 151z"/>
<path style="fill:#6c0d15; stroke:none;" d="M66 151L66 152L70 152L66 151z"/>
<path style="fill:#2d2123; stroke:none;" d="M70.6667 151.333L71.3333 151.667L70.6667 151.333z"/>
<path style="fill:#a7151d; stroke:none;" d="M51.6667 152.333L52.3333 152.667L51.6667 152.333z"/>
<path style="fill:#6c0d15; stroke:none;" d="M53 152L53 153L57 153L53 152z"/>
<path style="fill:#2d2123; stroke:none;" d="M57 152L57 153L60 153L57 152z"/>
<path style="fill:#a7151d; stroke:none;" d="M38 153L38 154L41 154L38 153z"/>
<path style="fill:#6c0d15; stroke:none;" d="M41 153L41 154L45 154L41 153z"/>
<path style="fill:#2d2123; stroke:none;" d="M45.6667 153.333L46.3333 153.667L45.6667 153.333z"/>
<path style="fill:#a7151d; stroke:none;" d="M26 154L26 155L29 155L26 154z"/>
<path style="fill:#6c0d15; stroke:none;" d="M29 154L29 155L32 155L29 154z"/>
<path style="fill:#2d2123; stroke:none;" d="M32 154L32 155L35 155L32 154z"/>
<path style="fill:#a7151d; stroke:none;" d="M14.6667 155.333L15.3333 155.667L14.6667 155.333z"/>
<path style="fill:#6c0d15; stroke:none;" d="M16 155L16 156L20 156L16 155z"/>
<path style="fill:#2d2123; stroke:none;" d="M20 155L20 156L23 156L20 155z"/>
<path style="fill:#6c0d15; stroke:none;" d="M4 156L4 157L8 157L4 156z"/>
<path style="fill:#2d2123; stroke:none;" d="M8.66667 156.333L9.33333 156.667L8.66667 156.333z"/>
<path style="fill:#010101; stroke:none;" d="M379 161L388 161C385.349 156.474 380.828 155.231 379 161z"/>
<path style="fill:#2d2123; stroke:none;" d="M412 157L412 159L414 159L414 157L412 157M415 157L416 158L415 157M411.333 159.667L411.667 160.333L411.333 159.667z"/>
</svg>
